<?xml version="1.0" encoding="UTF-8" standalone="no"?>
<!-- Generator: Adobe Illustrator 24.2.1, SVG Export Plug-In . SVG Version: 6.00 Build 0)  -->

<svg
   version="1.1"
   id="Layer_1"
   x="0px"
   y="0px"
   viewBox="0 0 641.11797 101.9629"
   xml:space="preserve"
   sodipodi:docname="Brooks_Brothers_new_logo.svg"
   width="641.11798"
   height="101.9629"
   inkscape:version="1.4 (86a8ad7, 2024-10-11)"
   xmlns:inkscape="http://www.inkscape.org/namespaces/inkscape"
   xmlns:sodipodi="http://sodipodi.sourceforge.net/DTD/sodipodi-0.dtd"
   xmlns="http://www.w3.org/2000/svg"
   xmlns:svg="http://www.w3.org/2000/svg"><defs
   id="defs4" /><sodipodi:namedview
   id="namedview4"
   pagecolor="#ffffff"
   bordercolor="#000000"
   borderopacity="0.25"
   inkscape:showpageshadow="2"
   inkscape:pageopacity="0.0"
   inkscape:pagecheckerboard="0"
   inkscape:deskcolor="#d1d1d1"
   inkscape:zoom="1.1207332"
   inkscape:cx="391.2617"
   inkscape:cy="88.781162"
   inkscape:window-width="1920"
   inkscape:window-height="1001"
   inkscape:window-x="-9"
   inkscape:window-y="-9"
   inkscape:window-maximized="1"
   inkscape:current-layer="Layer_1" />
<style
   type="text/css"
   id="style1">
	.st0{fill:#1A2E50;}
</style>


<path
   class="st0"
   d="m 536.39938,51.386705 c 2.83681,-3.647323 4.70099,-5.997818 5.43046,-7.132541 2.18839,0 3.97153,-0.486309 4.8631,-1.215774 0.32421,-0.243153 0.56735,-0.405257 0.81051,-0.405257 0.0811,0 0.24315,0.08106 0.24315,0.243155 0,0.243155 -0.64841,0.97262 -1.05366,1.53998 -1.21578,1.53998 -2.67471,3.56627 -3.07996,4.05258 -0.32421,0.405257 -5.10626,7.294642 -11.42828,15.237697 -7.53781,9.483035 -16.69663,20.506051 -19.69554,24.07232 l 0.48631,0.324207 c 10.69881,-11.995634 21.15446,-19.452381 26.82807,-19.452381 3.32312,0 5.0252,2.107341 5.0252,4.61994 0,8.267262 -17.42608,17.101885 -17.42608,23.910217 0,0.97262 0.56736,2.107341 2.18839,2.107341 4.94414,0 12.15773,-10.212499 18.72293,-17.020832 4.21467,-4.376785 14.34613,-13.778769 21.31654,-13.778769 2.10736,0 3.56629,1.296825 3.56629,3.404167 0,5.592559 -9.402,12.400893 -22.28919,16.291368 -1.21578,1.702083 -3.56627,5.349405 -3.56627,7.780952 0,1.621032 0.81051,3.64732 3.40416,3.64732 9.402,0 31.04276,-22.532337 34.60904,-30.718549 -0.56737,-0.567361 -1.05369,-1.134721 -1.05369,-2.674702 0,-1.539981 1.13473,-2.917857 2.43155,-2.917857 0.89158,0 1.62104,0.729464 1.62104,1.864186 0,1.215775 -0.64841,2.512599 -0.89157,3.161012 1.05367,0.405258 3.48521,0.567361 5.1873,0.891567 2.8368,0.405259 4.45783,1.702085 4.45783,4.133632 0,2.917856 -2.91786,6.240971 -4.78203,8.186209 -1.94524,2.107342 -6.64623,7.294643 -8.51042,9.401984 -2.26944,2.593651 -3.07996,3.809424 -3.07996,5.430456 0,1.053671 0.72946,2.107341 1.94524,2.107341 2.43155,0 3.97154,-1.134722 6.56518,-3.07996 0,-0.243154 -0.0811,-0.810515 -0.0811,-1.134721 0,-3.647322 3.64731,-6.889385 8.18619,-6.889385 0.3242,0 0.72947,0 0.89157,0.08106 8.18622,-6.240974 15.48084,-14.26508 17.58819,-18.317659 2.26944,-3.404168 2.83681,-7.132541 6.07887,-7.132541 0.97263,0 1.29683,0.729465 1.29683,1.377878 0,2.755754 -4.94413,3.728372 -4.94413,8.105158 0,3.161012 1.37786,4.944146 1.37786,10.455655 0,5.754662 -1.78314,11.914582 -8.75357,15.3998 l 0.24314,0.324206 c 14.67034,-5.025197 22.9376,-14.34613 28.61122,-22.127082 0.3242,-0.405258 0.56737,-0.810515 0.89158,-0.810515 0.3242,0 0.4863,0.243155 0.4863,0.567361 0,0.405256 -0.24316,0.891567 -0.4863,1.215774 -3.48523,4.619939 -17.66927,24.234417 -42.79524,24.234417 -5.51152,0 -7.61885,-2.026284 -8.26726,-3.89047 -3.07997,2.674702 -5.67362,3.97152 -7.78097,3.97152 -3.72836,0 -5.6736,-2.512591 -5.6736,-5.592552 0,-2.269444 1.37787,-4.782043 5.26836,-8.915674 1.78314,-1.945238 6.15991,-6.889385 7.37568,-8.186209 1.37789,-1.539982 3.80943,-3.809426 3.80943,-5.916766 0,-0.891568 -0.56737,-1.702084 -2.35049,-2.02629 -1.45894,-0.243155 -2.43155,-0.243155 -3.56627,-0.648412 -4.13363,8.429364 -25.20705,31.529063 -36.87848,31.529063 -5.26834,0 -7.53778,-3.079957 -7.53778,-6.078865 0,-2.026291 0.89155,-4.133633 1.21576,-4.863097 l -0.32421,-0.162103 c -2.10734,2.512599 -8.67252,10.941965 -14.50823,10.941965 -3.97153,0 -6.24097,-2.188394 -6.24097,-5.025198 0,-9.320932 19.20924,-19.533433 19.20924,-23.910217 0,-0.810517 -0.24316,-1.702085 -2.10735,-1.702085 -7.0515,0 -22.04604,14.021925 -31.77223,26.098611 -0.97263,1.215773 -2.75575,3.485218 -2.75575,3.485218 -0.97262,0.162101 -2.18838,0.405251 -4.53889,0.405251 -0.89156,0 -1.21577,-0.486304 -1.21577,-1.053664 0,-0.648413 0.40525,-1.215773 0.81051,-1.621032 1.62104,-2.107341 3.89047,-5.025199 4.37679,-5.511508 l -0.3242,-0.243154 c -3.89048,4.133631 -10.21251,9.158828 -16.21034,9.158828 -2.99889,0 -5.3494,-1.945236 -5.3494,-4.538888 0,-2.188393 1.05368,-3.971528 2.5126,-5.754663 2.43155,-3.079959 7.29465,-9.23988 7.29465,-9.23988 l -0.24317,-0.243155 c -3.48521,2.917857 -8.42935,4.295734 -10.77983,4.295734 -4.29576,5.430456 -14.02193,15.480852 -20.50607,15.480852 -3.72837,0 -6.07886,-2.10734 -6.07886,-5.835713 0,-1.783136 0.56735,-3.56627 0.89156,-4.214683 l -0.16209,-0.162102 c -1.70209,1.945237 -8.51043,10.050388 -13.77879,10.050388 -3.72836,0 -5.6736,-2.512591 -5.6736,-5.592552 0,-2.269444 1.53998,-4.944147 5.18731,-8.834621 1.94523,-2.188395 6.56518,-7.294644 7.86201,-8.753572 1.13472,-1.215775 3.40415,-3.566269 3.40415,-5.430456 0,-0.891568 -0.56736,-1.783135 -2.35049,-2.02629 -1.45893,-0.243155 -2.67472,-0.324205 -3.56627,-0.648412 -4.05258,8.348313 -17.18293,20.343948 -25.2881,24.963886 -0.1621,0.08106 -0.32421,0.162103 -0.56736,0.162103 -0.3242,0 -0.64841,-0.243154 -0.64841,-0.56736 0,-0.324206 0.16209,-0.567361 0.56735,-0.810517 5.59257,-3.404164 18.64187,-13.211407 24.72074,-24.315472 -0.56736,-0.567364 -1.05366,-1.134725 -1.05366,-2.674705 0,-1.539979 1.13471,-2.917856 2.35049,-2.917856 0.97262,0 1.62103,0.729463 1.62103,1.864187 0,1.215773 -0.64841,2.512598 -0.97261,3.16101 1.05366,0.40526 3.3231,0.648414 5.0252,0.891569 3.16101,0.405257 4.53888,1.945238 4.53888,4.052579 0,2.917856 -2.99891,6.403075 -4.70099,8.267262 -1.70209,1.945237 -6.80834,7.537797 -8.51041,9.401983 -1.05369,1.134722 -3.07996,3.16101 -3.07996,5.511508 0,1.05367 0.64841,2.107341 2.10734,2.107341 2.59364,0 6.56517,-3.161012 11.34721,-8.429364 8.18622,-9.077779 19.37134,-21.397618 29.66488,-21.397618 2.59365,0 4.3768,1.783134 4.3768,4.133629 0,2.836806 -3.16102,7.943056 -5.91678,11.590376 4.45783,-0.162102 11.99564,-5.106249 16.85873,-11.428272 2.1884,-2.836806 4.701,-5.916766 4.701,-5.916766 h -9.80725 c 0.56737,-0.891568 0.72946,-1.377876 2.26945,-1.377876 h 7.78094 c 5.83573,-1.783135 9.8883,-5.916767 17.02085,-14.265078 0.24315,-0.324207 0.48629,-0.48631 0.72945,-0.48631 0.40527,0 0.64841,0.324206 0.64841,0.567361 0,0.162102 -0.0811,0.324205 -0.1621,0.567361 -0.72947,0.891567 -10.61775,13.535613 -10.61775,13.535613 h 7.05147 c -0.72945,1.215774 -1.13471,1.377877 -2.18837,1.377877 h -5.91678 c 0,0 -14.26508,18.155555 -18.72292,23.829166 -2.59364,3.323115 -3.97152,4.782043 -3.97152,6.484128 0,0.972618 0.48631,1.864185 2.10735,1.864185 3.97152,0 12.88721,-5.754662 19.93868,-14.508234 1.94523,-2.431547 23.82918,-29.826982 26.58491,-33.393251 m 76.91796,35.986903 c 2.67471,-4.457838 3.32312,-8.591468 3.32312,-11.75248 0,-0.729464 -0.16211,-2.755753 -0.16211,-3.404166 0,-0.972619 0.16211,-1.458929 0.48632,-2.188392 -3.72839,5.592558 -11.02302,13.535613 -17.10188,17.831347 0.89155,0.405258 1.53998,1.134723 1.53998,2.350497 0,2.188391 -1.70209,3.566269 -4.78205,3.566269 -2.91785,0 -4.37679,1.296826 -4.37679,2.755754 0,1.945238 2.0263,2.5126 3.24207,2.5126 6.15993,0 13.3735,-4.376788 17.83134,-11.671429 M 479.74425,85.18521 c -1.37787,-0.48631 -2.35049,-1.702083 -2.35049,-3.161012 0,-5.025197 9.23988,-3.971526 9.23988,-9.645138 0,-1.134722 -0.97263,-2.269444 -2.67471,-2.269444 -7.53779,0 -25.20703,21.640773 -25.20703,26.747023 0,1.296826 0.72946,2.836805 2.59364,2.836805 5.91677,-0.08105 16.61557,-12.238788 18.39871,-14.508234 m 72.05488,1.702085 c 11.26615,-3.323116 18.64185,-11.67143 18.64185,-15.156647 0,-0.810515 -0.24316,-1.702083 -1.37788,-1.702083 -3.24207,0 -11.10406,9.077777 -17.26397,16.85873 M 407.36527,58.600296 c -2.99892,0 -4.3768,-1.215774 -4.3768,-2.43155 0,-1.296823 1.45894,-2.350494 3.64733,-2.350494 2.9989,0 5.43046,0.972618 7.45674,3.242063 -1.45892,0.486311 -3.80942,1.539981 -6.72727,1.539981 m 7.53779,-16.696627 c 3.40415,-3.971529 9.07777,-10.536705 16.85872,-17.263987 1.53998,3.079959 2.10735,6.240971 2.10735,9.23988 0,8.915675 -7.78096,17.669245 -16.04821,21.640772 -2.59365,-1.945237 -6.48413,-3.079958 -10.77986,-3.079958 -0.64841,0 -1.13472,0.08106 -1.37788,0.08106 2.91785,-3.242064 6.56517,-7.537798 9.23988,-10.617756 m 5.43046,15.886108 c 10.29354,-3.728372 20.58709,-12.80615 20.58709,-24.882835 0,-4.052579 -1.21577,-8.348313 -4.37679,-12.157738 12.15775,-9.401984 23.74813,-18.074503 41.57948,-18.074503 21.15446,0 32.50169,10.536706 32.50169,20.830256 0,12.887203 -12.80616,20.181845 -30.71856,20.181845 -17.5882,0 -26.0986,-9.969344 -29.09753,-12.968254 -0.72945,-0.810515 -1.21576,-1.53998 -1.70207,-1.53998 -0.24316,0 -0.40526,0.162104 -0.40526,0.405259 0,0.48631 0.40526,0.972618 1.21577,1.945238 3.64733,3.890477 12.48194,13.616666 30.39436,13.616666 18.72289,0 31.77221,-8.591468 31.77221,-21.397619 0,-12.887201 -13.94088,-22.3702364 -33.06903,-22.3702364 -19.93871,0 -32.58276,7.3756941 -45.55101,16.3724204 -5.26837,-4.619941 -16.77768,-8.4293652 -29.58383,-8.4293652 -30.71855,0 -51.71091,19.2902762 -51.71091,34.2037682 0,8.753573 5.83572,14.508234 14.83245,14.508234 21.47867,0 33.47429,-27.395435 33.47429,-39.066864 0,-0.486309 -0.32421,-0.648412 -0.56734,-0.648412 -0.40528,0 -0.64841,0.405257 -0.81053,1.539979 -2.10733,16.777679 -14.26509,36.878471 -31.77222,36.878471 -9.80724,0 -13.77878,-6.403074 -13.77878,-12.887201 0,-15.237699 21.72184,-32.987995 50.5762,-32.987995 9.23988,0 19.85763,3.971528 25.20703,10.131448 -8.59147,6.484127 -14.34611,12.887202 -18.31765,17.263987 -8.10516,8.834623 -21.55972,24.396527 -25.45019,28.773312 -5.59258,6.322024 -27.15228,33.069041 -55.27719,33.069041 -21.80287,0 -35.90585,-9.564081 -35.90585,-22.694437 0,-11.104068 13.94088,-25.369146 35.74375,-25.369146 15.23769,0 20.58711,8.024106 20.58711,15.075594 0,11.18512 -14.58929,20.911309 -30.47541,20.911309 -3.80942,0 -5.75465,-0.56736 -6.72727,-0.810515 -0.40526,-0.162104 -0.64841,-0.243156 -0.89157,-0.243156 -0.40525,0 -0.56737,0.324206 -0.56737,0.567362 0,0.648411 0.81053,0.972619 2.10736,1.215773 0.81051,0.162103 3.24205,0.648412 6.24096,0.648412 16.12927,0 31.85327,-10.050396 31.85327,-22.289185 0,-8.510415 -6.40308,-16.453471 -21.80288,-16.453471 -19.69553,0 -37.28373,12.481944 -37.28373,26.747023 0,15.237697 16.69663,23.991267 37.20269,23.991267 33.71745,0 53.08879,-22.127081 61.43708,-31.853271 2.83682,-3.323116 8.83464,-10.293551 10.53672,-12.23879 0.56736,1.377876 2.10735,2.836807 6.48414,2.836807 3.07995,0 5.59254,-0.48631 7.45674,-0.810516 1.78314,2.917857 2.59365,7.294641 2.59365,11.104066 0,13.859821 -14.26508,30.070134 -26.01756,30.070134 -5.18731,0 -9.32095,-3.890472 -9.32095,-8.591465 0,-12.076685 19.20925,-22.937596 31.20487,-22.937596 0.56737,0 0.72946,-0.324208 0.72946,-0.729465 0,-0.324206 -0.16209,-0.648415 -0.72946,-0.648415 -12.64403,0 -32.58273,11.104069 -32.58273,24.396529 0,5.10625 4.45783,9.969342 11.67143,9.969342 16.93978,0 32.17747,-14.994541 32.17747,-31.366961 -0.64842,-3.809425 -1.94524,-8.672519 -5.6736,-12.806151 m -12.96825,0.810518 c -2.99892,0 -4.3768,-1.215775 -4.3768,-2.431549 0,-1.296825 1.45894,-2.350496 3.64733,-2.350496 2.9989,0 5.43046,0.972619 7.45674,3.242063 -1.45892,0.48631 -3.80942,1.539982 -6.72727,1.539982 m 7.53779,-16.696626 c 3.40415,-3.971529 9.07777,-10.536708 16.85872,-17.263989 1.53998,3.07996 2.10735,6.240972 2.10735,9.239881 0,8.915675 -7.78096,17.669246 -16.04821,21.640772 -2.59365,-1.945238 -6.48413,-3.079959 -10.77986,-3.079959 -0.64841,0 -1.13472,0.08104 -1.37788,0.08104 2.91785,-3.242062 6.56517,-7.537796 9.23988,-10.617756 m 5.43046,15.88611 c 10.29354,-3.728373 20.58709,-12.80615 20.58709,-24.882837 0,-4.052578 -1.21577,-8.348313 -4.37679,-12.157737 12.15775,-9.401984 23.74813,-18.0745031 41.57948,-18.0745031 21.15446,0 32.50169,10.5367061 32.50169,20.8302561 0,12.887203 -12.80616,20.181844 -30.71856,20.181844 -17.5882,0 -26.0986,-9.969344 -29.09753,-12.968252 -0.72945,-0.810516 -1.21576,-1.53998 -1.70207,-1.53998 -0.24316,0 -0.40526,0.162103 -0.40526,0.405258 0,0.48631 0.40526,0.972618 1.21577,1.945238 3.64733,3.890477 12.48194,13.616666 30.39436,13.616666 18.72289,0 31.77221,-8.591468 31.77221,-21.397618 0,-12.887202 -13.94088,-22.3702374 -33.06903,-22.3702374 -19.93871,0 -32.58276,7.3756941 -45.55101,16.3724204 -5.26837,-4.619942 -16.77768,-8.4293652 -29.58383,-8.4293652 -30.71855,0 -51.71091,19.2902772 -51.71091,34.2037672 0,8.753574 5.83572,14.508235 14.83245,14.508235 21.47867,0 33.47429,-27.395435 33.47429,-39.066864 0,-0.486309 -0.32421,-0.648412 -0.56734,-0.648412 -0.40528,0 -0.64841,0.405257 -0.81053,1.53998 -2.10733,16.777678 -14.26509,36.87847 -31.77222,36.87847 -9.80724,0 -13.77878,-6.403075 -13.77878,-12.8872 0,-15.237699 21.72184,-32.987996 50.5762,-32.987996 9.23988,0 19.85763,3.971528 25.20703,10.131449 -8.59147,6.484126 -14.34611,12.8872 -18.31765,17.263986 -8.10516,8.834623 -21.55972,24.396528 -25.45019,28.773312 -5.59258,6.322024 -27.15228,33.069041 -55.27719,33.069041 -21.80287,0 -35.90585,-9.564081 -35.90585,-22.694438 0,-11.104066 13.94088,-25.369147 35.74375,-25.369147 15.23769,0 20.58711,8.024107 20.58711,15.075596 0,11.18512 -14.58929,20.911309 -30.47541,20.911309 -3.80942,0 -5.75465,-0.56736 -6.72727,-0.810515 -0.40526,-0.162104 -0.64841,-0.243156 -0.89157,-0.243156 -0.40525,0 -0.56737,0.324206 -0.56737,0.567362 0,0.648412 0.81053,0.97262 2.10736,1.215773 0.81051,0.162103 3.24205,0.648413 6.24096,0.648413 16.12927,0 31.85327,-10.050396 31.85327,-22.289186 0,-8.510416 -6.40308,-16.453472 -21.80288,-16.453472 -19.69553,0 -37.28373,12.481945 -37.28373,26.747023 0,15.237698 16.69663,23.991268 37.20269,23.991268 33.71745,0 53.08879,-22.127081 61.43708,-31.853272 2.83682,-3.323115 8.83464,-10.293551 10.53672,-12.238789 0.56736,1.377877 2.10735,2.836806 6.48414,2.836806 3.07995,0 5.59254,-0.48631 7.45674,-0.810515 1.78314,2.917857 2.59365,7.294642 2.59365,11.104066 0,13.859821 -14.26508,30.070144 -26.01756,30.070144 -5.18731,0 -9.32095,-3.890482 -9.32095,-8.591475 0,-12.076685 19.20925,-22.937597 31.20487,-22.937597 0.56737,0 0.72946,-0.324208 0.72946,-0.729465 0,-0.324206 -0.16209,-0.648414 -0.72946,-0.648414 -12.64403,0 -32.58273,11.104068 -32.58273,24.396529 0,5.10625 4.45783,9.969352 11.67143,9.969352 16.93978,0 32.17747,-14.994551 32.17747,-31.36697 -0.64842,-3.809426 -1.94524,-8.67252 -5.6736,-12.806151"
   id="path3"
   style="stroke-width:0.810515" />
<path
   class="st0"
   d="m 232.05068,71.487496 c -5.18729,6.565179 -13.04929,12.238791 -18.23661,11.67143 2.26945,-2.5126 4.94415,-6.403076 4.94415,-10.212501 0,-2.350496 -1.37787,-4.376784 -5.10626,-4.376784 -8.10515,0 -17.99344,9.239879 -19.61447,10.698808 -1.94523,1.783134 -5.99782,5.673612 -11.10407,5.835714 2.5126,-3.323115 5.99783,-8.834623 5.99783,-12.562997 0,-2.10734 -1.45893,-3.971525 -4.21469,-3.971525 -10.29356,0 -21.23552,12.481942 -29.42173,21.478669 -4.78205,5.268352 -8.83462,8.510415 -11.42826,8.510415 -1.45894,0 -2.10735,-1.05367 -2.10735,-2.10734 0,-1.945239 1.37788,-3.647321 2.59364,-4.944148 1.78314,-2.026288 6.7273,-7.456743 8.67253,-9.564086 1.70208,-1.864186 5.0252,-5.673611 5.0252,-8.591467 0,-2.107341 -1.13472,-3.728373 -4.94414,-4.214682 -1.70209,-0.243156 -3.56628,-0.486311 -4.701,-0.810517 0.3242,-0.648413 0.97261,-1.945237 0.97261,-3.161012 0,-1.134722 -0.64841,-1.783136 -1.62102,-1.783136 -1.21578,0 -2.3505,1.377878 -2.3505,2.917859 0,1.53998 0.56736,2.107341 1.05367,2.674702 -6.07886,11.104067 -19.12817,20.992359 -24.72073,24.315475 -0.40526,0.243155 -0.56736,0.486311 -0.56736,0.810517 0,0.324205 0.24315,0.56736 0.64841,0.56736 0.24316,0 0.40526,-0.08106 0.56736,-0.162104 8.10516,-4.538889 21.15447,-16.615574 25.20704,-24.882835 0.97261,0.324206 2.0263,0.405258 3.48523,0.648412 1.94523,0.243155 2.43155,1.134722 2.43155,2.02629 0,1.945239 -2.0263,3.809425 -3.40418,5.349405 -1.05367,1.296824 -5.67361,6.484126 -7.6999,8.672519 -3.72838,4.052579 -5.26836,6.64623 -5.26836,8.915674 0,3.079961 1.94524,5.592559 5.67362,5.592559 5.43045,0 12.56299,-8.672518 14.02191,-10.293551 l 0.16212,0.243155 c -0.40525,0.729463 -0.89157,2.431548 -0.89157,4.214683 0,3.728371 2.35049,5.835713 5.99783,5.835713 6.48412,0 16.21031,-9.807242 20.10078,-14.670336 0.1621,0 0.64842,0.08106 0.72946,0.08106 3.07997,0 5.83572,-1.215775 7.78096,-2.593652 l 0.1621,0.243155 c -1.37787,1.94524 -5.10626,6.727282 -5.10626,11.266171 0,3.809424 2.59366,5.673612 5.67363,5.673612 8.1862,0 19.53343,-14.021925 21.5597,-16.453473 4.13364,0.324206 8.75359,-1.53998 12.31986,-4.538888 l 0.32421,0.243154 c 0,0 -10.45567,12.887202 -13.69773,17.182937 -0.48631,0.648412 -0.97261,1.134721 -0.97261,1.783135 0,0.729462 0.56735,1.296825 1.45892,1.296825 2.75575,0 3.32312,-0.405258 4.53889,-0.729465 0.89156,-1.296825 1.37788,-1.945238 2.43154,-3.404166 4.37679,-5.754663 22.1271,-25.936508 29.09752,-25.936508 0.97262,0 1.78314,0.567362 1.78314,1.539981 0,2.917857 -4.29573,7.943055 -8.91567,9.807242 -1.21579,-1.053671 -2.75576,-1.702085 -4.13363,-1.702085 -0.97263,0 -1.86419,0.648414 -1.86419,1.539981 0,1.215774 1.45894,2.02629 3.16101,2.02629 0.56736,0 1.21578,-0.08104 1.78314,-0.162104 -0.0811,1.053671 -1.05368,2.107342 -2.10735,3.404168 -2.35049,2.755753 -5.83571,6.484126 -5.83571,9.320933 0,3.16101 2.43155,4.863093 6.24097,4.863093 4.29574,0 8.34831,-3.161011 9.32094,-3.890476 0.56735,1.53998 2.10733,3.890476 8.99673,3.890476 12.07669,0 18.88502,-5.511507 23.91022,-10.455654 0.56735,-0.56736 0.64841,-0.729464 0.64841,-0.972619 0,-0.243155 -0.16211,-0.486309 -0.48632,-0.486309 -0.32421,0 -0.4863,0.162103 -0.72947,0.486309 -1.94523,1.783135 -3.97151,3.890476 -7.94305,6.484127 l -0.1621,-0.162109 c 3.56627,-2.755754 5.91676,-6.970436 5.91676,-13.697718 0,-5.673611 -1.29682,-6.727282 -1.29682,-10.536705 0,-2.269445 1.62103,-3.809425 2.26945,-4.457839 1.13472,-1.05367 2.59364,-2.026289 2.59364,-3.566268 0,-0.810516 -0.4863,-1.458929 -1.29682,-1.458929 -1.94524,0 -2.91786,1.702082 -3.64732,2.836806 -0.64841,1.215772 -1.45894,3.323115 -3.72837,6.240971 -6.15992,7.699901 -9.8883,11.752479 -16.29138,16.453472 -0.0811,0 -0.56736,-0.08106 -0.89156,-0.08106 -4.78205,0 -8.99673,3.647321 -8.10516,8.024106 -1.78314,1.215774 -5.0252,3.890477 -8.0241,3.890477 -1.05368,0 -2.0263,-0.567361 -2.0263,-1.864187 0,-3.64732 5.75465,-6.484126 5.75465,-11.995634 0,-0.972619 -0.3242,-1.945238 -0.89154,-2.755754 5.59254,-1.621032 12.15773,-6.240972 12.15773,-11.18512 0,-2.10734 -1.29683,-3.404165 -3.24206,-3.404165 -6.72728,0 -15.72401,7.537797 -26.66598,20.100792 l -0.40524,-0.405258 c 3.07994,-3.566269 12.15773,-14.589284 19.6955,-23.991269 6.32204,-7.943055 11.10408,-14.832438 11.42829,-15.237697 0.40526,-0.486309 1.78314,-2.512599 2.99892,-4.052579 0.40525,-0.48631 1.05366,-1.296826 1.05366,-1.53998 0,-0.162103 -0.1621,-0.243155 -0.32421,-0.243155 -0.1621,0 -0.40525,0.08106 -0.81052,0.405258 -0.89155,0.729465 -2.75574,1.215773 -4.86309,1.215773 -0.81051,1.134721 -2.59365,3.485219 -5.43046,7.13254 -1.62103,1.783134 -16.04821,19.857637 -16.04821,19.857637 M 114.68799,59.086605 c -1.53998,0 -2.26944,-0.810516 -2.26944,-1.702083 0,-1.215776 1.37788,-2.269446 3.48522,-2.269446 2.26944,0 4.13362,1.215776 5.26835,2.43155 -2.10734,0.891567 -4.29574,1.539979 -6.48413,1.539979 m 10.53671,-0.567361 c 10.13146,-4.376786 18.88502,-14.751389 18.88502,-27.557538 0,-3.890477 -1.13472,-7.862004 -3.72837,-11.347224 12.07668,-9.158828 27.96278,-18.1555535 46.76676,-18.1555535 21.80288,0 30.31329,11.9145825 30.31329,23.2618045 0,20.587102 -21.96499,32.096428 -45.14573,32.096428 -7.05149,0 -12.15774,-1.053671 -14.58929,-1.621033 -1.29682,-0.324205 -2.10734,-0.648412 -2.5126,-0.648412 -0.40525,0 -0.56737,0.243154 -0.56737,0.486309 0,0.486309 0.32422,0.810515 1.78315,1.134721 2.02628,0.486312 8.3483,2.026292 15.72401,2.026292 24.47757,0 46.76676,-12.400893 46.76676,-33.555356 C 218.92033,10.779861 207.73521,0 187.14811,0 c -20.18185,0 -37.04058,7.6188489 -49.84672,16.37242 -5.0252,-4.376785 -13.21141,-7.3756943 -25.04495,-7.3756943 -29.016464,0 -52.278267,19.6955353 -52.278267,34.8521823 0,7.943054 5.673611,13.940872 15.561904,13.940872 21.235515,0 35.500603,-26.179662 38.580553,-33.150098 0.40526,-0.810516 0.72947,-1.864187 0.72947,-2.431547 0,-0.405259 -0.24317,-0.648415 -0.56737,-0.648415 -0.40525,0 -0.56736,0.486312 -0.81051,0.972621 -6.97044,16.210318 -21.154466,33.798511 -38.175298,33.798511 -9.239881,0 -13.940873,-5.835715 -13.940873,-12.725099 0,-15.480854 24.720733,-33.393253 51.143541,-33.393253 10.0504,0 16.93978,4.052579 20.83027,8.915673 -8.99673,6.727282 -15.39981,13.859821 -19.61449,18.479761 -8.83462,9.72619 -20.668151,23.018651 -25.450195,28.449107 -11.26617,12.887201 -29.259622,33.069046 -55.115077,33.069046 -21.559721,0 -31.7722211,-10.779862 -31.7722211,-24.477579 0,-11.347221 10.6988091,-25.12599 33.3122011,-25.12599 14.751388,0 20.343947,6.727281 20.343947,13.940872 0,11.509326 -13.130356,20.181845 -28.368055,20.181845 -3.566268,0 -5.754662,-0.729466 -6.403074,-0.891569 -0.243155,-0.08104 -0.729464,-0.324206 -1.05367,-0.324206 -0.243155,0 -0.567361,0.162103 -0.567361,0.567363 0,0.486308 0.567361,0.810515 2.269443,1.296825 1.539981,0.405257 3.485219,0.810515 6.240973,0.810515 15.318748,0 29.25962,-9.320931 29.25962,-21.397618 0,-8.510417 -6.565177,-15.399801 -21.640771,-15.399801 C 12.644047,48.306744 0,61.437101 0,74.729561 c 0,15.561903 12.238789,25.936509 32.582738,25.936509 33.393252,0 53.169838,-22.370239 61.4371,-31.853274 6.646232,-7.61885 15.561912,-17.83135 23.829162,-27.395437 3.56627,-4.133631 9.5641,-11.185118 17.9124,-18.155553 1.13472,2.431547 1.62103,5.106249 1.62103,7.6999 0,10.374602 -5.9978,20.50605 -14.18403,25.450195 -2.18838,-1.864185 -4.78203,-2.836804 -7.69989,-2.836804 -3.72838,0 -5.1873,2.026289 -5.1873,3.56627 0,1.621032 0.89156,3.566269 4.78204,3.566269 2.26944,0 4.78205,-0.405257 7.13254,-1.134722 0.72946,1.783135 0.97261,4.052579 0.97261,6.322024 0,13.454563 -15.80505,34.203772 -28.449099,34.203772 -6.322023,0 -9.320931,-4.700996 -9.320931,-8.267264 0,-11.266172 15.2377,-20.668156 30.4754,-25.369147 0.97261,-0.324205 1.86419,-0.567361 1.86419,-1.05367 0,-0.243156 -0.16211,-0.324206 -0.48632,-0.324206 -0.56736,0 -1.78313,0.324206 -2.59365,0.648412 -15.561903,4.61994 -30.556446,14.913491 -30.556446,25.531249 0,4.863094 2.917858,10.293546 11.104067,10.293546 17.588189,0 33.069049,-15.480848 32.987989,-33.069042 0.081,-4.295734 -1.21576,-7.618848 -2.9989,-9.969344 m 128.5478,40.525791 c -2.10734,0 -3.40416,-1.05367 -3.40416,-2.431548 0,-1.539979 1.62102,-2.755753 4.05257,-2.755753 3.24206,0 5.1873,-1.215773 5.1873,-3.56627 0,-1.296825 -0.72945,-2.026289 -1.45891,-2.350495 5.51151,-3.809425 14.50823,-13.535614 17.02084,-17.83135 -0.24317,0.405259 -0.40527,1.053671 -0.40527,1.945239 0,1.053671 0.1621,2.59365 0.1621,3.890476 0,12.725099 -11.91457,23.099701 -21.15447,23.099701 M 209.51834,81.537893 c 0,1.296827 0.56735,2.026291 1.78314,2.512601 -2.51261,3.485216 -13.29246,15.318748 -19.04713,15.318748 -1.78313,0 -2.43154,-1.377877 -2.43154,-2.59365 0,-5.592561 18.23661,-26.828075 24.96388,-26.828075 1.70209,0 2.43154,0.97262 2.43154,2.269443 0,4.376787 -7.69989,5.106251 -7.69989,9.320933 m -31.1238,1.134723 c 0,1.377878 0.72946,2.593651 2.26945,3.161012 -2.51261,3.242062 -12.563,13.616665 -17.83136,13.616665 -2.10734,0 -2.6747,-1.377877 -2.6747,-2.917856 0,-5.916766 18.47976,-26.260714 24.88285,-26.260714 1.70207,0 2.43154,0.810516 2.43154,2.188393 0,4.052579 -9.07778,4.538889 -9.07778,10.2125"
   id="path4"
   style="stroke-width:0.810515" />
</svg>
