<svg xmlns="http://www.w3.org/2000/svg" xmlns:svg="http://www.w3.org/2000/svg" viewBox="8.51 80.3 175.75 32.15">
 <g class="layer">
  <title>Layer 1</title>
  <path d="m115.92,112.21c0.29,0.44 2.47,0.17 2.88,0.08c0.95,-0.23 0.73,-0.98 0.72,-2.32c0,-0.89 -0.09,-1.79 -0.09,-2.69c0,-0.46 0.03,-0.92 0.02,-1.38c-0.09,-3.65 0.71,-6.46 2.39,-8.43c1.18,-1.39 2.54,-1.89 2.77,-1.93c0.9,-0.18 1.42,0.05 1.58,0.7c0.23,0.99 0,1.82 -0.69,2.49c-0.98,0.95 -1.43,0.56 -2.32,0.55c-0.59,-0.01 -0.59,0.25 0,0.77c2.37,2.1 5.77,1.54 6.22,1.48c4.04,-0.5 6.47,-3.3 6.97,-3.39c0.51,-0.09 -0.25,2.12 1.47,2.92c1.92,0.89 6.4,0.45 8.82,-1.56l1.53,-1.28c0.62,-0.52 0.11,1.38 2.97,2.89c3.34,1.77 9.22,0.38 9.38,-4.25c0.05,-1.34 -1.09,-2 0.32,-2.26c2.11,-0.4 1.43,-0.16 3.27,3.65a43.77,43.77 0 0 0 0.94,1.89c0.35,0.58 0.71,1.42 1.67,1.2c1.26,-0.27 3.52,-2.81 3.71,-3.06l1.2,-1.51c0.13,-0.16 0.31,-0.11 0.55,0.17l3.34,3.88c0.32,0.37 0.78,0.55 1.4,0.53c0.67,-0.02 1.5,-0.34 2.47,-0.96c1.75,-1.11 3.04,-2.16 3.87,-3.16c0.93,-1.13 1.19,-1.86 0.79,-2.19c-0.92,-0.76 -2.46,1.09 -3.62,1.62c-3.06,1.4 -4.74,-3.85 -5.97,-4.51c-0.92,-0.49 -2.22,0.08 -3.93,1.73l-1.47,1.43c-0.58,0.56 -0.99,-1.47 -1.43,-2.28c-0.34,-0.6 -0.62,-0.96 -0.88,-1.08c-0.83,-0.41 -5.61,1.08 -8.44,1.21l-2.22,0.1c-0.71,0.04 0.16,1.03 0.29,1.77c0.29,1.62 -0.32,3.26 -1.3,3.51c-1.72,0.45 -2.21,-2.33 -2.07,-3.31c0.36,-2.41 2.9,-2.78 3.07,-2.91c0.48,-0.35 -0.02,-0.72 -1.12,-0.84c-4.21,-0.46 -5.61,3.98 -10.28,6.53c-3.6,1.96 -2.57,-0.56 -2.69,-2.09c-0.29,-3.61 1.22,-3.86 -3.48,-3.72c-0.35,0.01 -1.43,-0.12 -1.75,0.65c-0.5,1.19 0.4,1.32 -0.73,2.63c-1.37,1.58 -2.86,2.56 -4.46,2.92c-2.4,0.55 -1.3,-0.65 -1.08,-1.35c0.18,-0.57 0.29,-1.06 0.32,-1.46c0.13,-1.67 -2.03,-3.6 -5.55,-3.09c-3.11,0.46 -5.48,3.16 -5.57,3.23c-0.07,0.04 -0.12,0.11 -0.19,0.11l-0.09,0c-0.05,0 -0.07,-0.39 -0.06,-1.16c0.03,-1.81 0.28,-2.24 -1.31,-2.31c-1.86,-0.09 -1.95,0.25 -2.26,0.62c-0.52,0.62 -0.82,1.39 -1.3,2.04c-1.36,1.85 -2.36,2.66 -3,2.41c-0.4,-0.15 -4.4,-4.72 -5.22,-4.9c-0.73,-0.16 -1.4,0.13 -1.99,0.86l-2.63,3.22c-0.21,0.26 -0.47,0.19 -0.78,-0.21l-2.5,-3.23c-0.47,-0.6 -1.86,-1.11 -2.97,0.26l-2.64,3.27c-0.16,0.2 -0.38,0.14 -0.65,-0.2l-2.95,-3.57c-0.09,-0.12 -0.71,-0.58 -1.46,-0.31c-0.68,0.25 -2.44,2.08 -4.02,3.42c-0.57,0.49 -1.07,1.07 -1.67,1.53c-0.07,0.05 -0.13,0.12 -0.22,0.16c-0.56,0.28 -1.08,-0.91 -1.56,-1.49c-0.95,-1.15 -1.62,-1.77 -1.99,-1.89c-1.8,-0.53 -1.57,2.11 -1.89,3.02c-0.73,2.11 -3.63,2.33 -3.64,0.07c-0.02,-2.59 3.34,-3.7 3.51,-3.82c0.28,-0.19 0.79,-0.72 -0.3,-0.82c-2.06,-0.2 -4.3,0.51 -6.72,2.14l-4.01,2.7c-1.78,1.19 -3.08,-3.15 -3.57,-3.88c-0.23,-0.34 -0.6,-1.22 -1.87,-0.92c-0.54,0.12 -1.42,0.75 -2.63,1.87l-2.06,1.9c-0.15,0.14 -0.28,0.11 -0.39,-0.09c-0.12,-0.21 -0.22,-1.55 -0.3,-4.03c-0.04,-1.53 0.04,-3.06 -0.05,-4.58c-0.05,-0.87 -0.14,-0.9 -0.02,-2.83c0.01,-0.18 0.03,-0.35 0.03,-0.53c-0.01,-0.68 -0.54,-0.55 -1.84,-0.57c-1.21,-0.03 -2.09,-0.21 -2.13,0.56l-0.3,6.63c-0.19,4.25 -0.03,7.16 0.48,8.74c0.39,1.23 0.98,1.91 1.76,2.03c2.23,0.35 4.21,-2.85 4.57,-3.2c0.29,-0.3 0.59,-0.72 1.13,-0.08c0.37,0.46 0.6,1.02 0.94,1.49c1.32,1.78 1.78,1.79 3.11,1.76c2.33,-0.05 4.66,-2.44 5.19,-2.71c0.68,-0.36 0.6,0.36 0.72,0.68c0.56,1.54 2.65,2.67 5.08,2.14c3.03,-0.67 3.09,-2.25 4.02,-1.93c0.61,0.2 1.37,2.27 2.96,2.06c0.92,-0.11 3.05,-2.01 4.38,-3c0.96,-0.71 1.52,-1.11 1.69,-1.21c0.89,-0.53 1.02,0.73 3.15,3.11c0.78,0.86 1.64,1.71 3.47,-0.14l2.73,-2.77c0.62,-0.62 1.43,1.33 3.37,3.27c0.12,0.12 0.23,0.27 0.38,0.36c0.61,0.43 1.46,0.03 2.53,-1.19l2.17,-2.47c0.19,-0.21 0.45,-0.17 0.77,0.13c1.27,1.15 2.77,3.49 3.98,3.6c1.1,0.1 2.6,-0.62 4.52,-2.16l1.84,-1.47c0.59,-0.47 0.18,1.1 0.41,4.38c0.08,1.08 0.1,2.35 0.05,3.79c-0.09,2.8 0.37,5.71 0.45,5.82zm-90.87,-7.45c2.38,0.29 4.81,0.3 7.28,0.03c2.2,-0.23 4.04,-0.58 5.53,-1.03c4.52,-1.36 7.76,-3.63 9.32,-5.54c1.13,-1.39 -0.4,-0.44 -1.29,-0.1a42.13,42.13 0 0 1 -8.75,2.34c-2.72,0.42 -2.36,0.26 -2.38,-0.83c-0.08,-4.7 0.19,-9.41 0.04,-14.12c-0.04,-1.23 0,-1.18 1.38,-1.05c2.56,0.23 5.3,0.85 8.22,1.87c0.53,0.18 2.8,1.45 1.47,-0.56c-2.85,-4.33 -11.91,-5.33 -14.92,-5.44c-18.54,-0.68 -27.74,11.12 -19.28,19.01c3.19,2.97 7.65,4.78 13.37,5.42l0.01,0z" fill="#063564" id="svg_3"/>
  <path d="m21.43,84.45c0.32,-0.11 0.64,-0.14 0.97,-0.09c0.46,0.06 0.45,0.22 0.47,0.57l-0.04,15.24c0,0.18 -0.05,0.31 -0.16,0.38c-0.24,0.15 -2.65,-0.16 -3.91,-0.53c-1.6,-0.46 -4.84,-1.9 -6.21,-4.7c-0.74,-1.52 -0.66,-3.31 -0.59,-3.71c0.79,-4.16 5.24,-6.6 9.47,-7.16z" fill="#ed1f1c" id="svg_4"/>
  <path d="m138.27,90.66c0.68,0.18 3.46,0.23 3.8,-1.79c0.35,-2.03 -3.04,-3.13 -4.96,-1.66c-1.09,0.83 -1.4,2.82 1.16,3.45zm41.71,-0.03c0.95,0 1.75,-0.78 1.75,-1.75a1.75,1.75 0 0 0 -3.5,0.01c0,0.95 0.78,1.74 1.75,1.74z" fill="#063564" id="svg_5"/>
  <path d="m179.99,90.39a1.47,1.47 0 0 1 -1.48,-1.47c0,-0.82 0.66,-1.48 1.47,-1.48a1.47,1.47 0 1 1 0.01,2.95z" fill="#fff" id="svg_6"/>
  <path d="m179.21,89.86l0.4,0l0,-0.8l0.4,0c0.17,0 0.36,0.15 0.36,0.47c0,0.24 0.01,0.26 0.02,0.33l0.39,0c-0.05,-0.2 0,-0.4 -0.05,-0.6c-0.05,-0.22 -0.18,-0.33 -0.31,-0.34a0.49,0.49 0 0 0 0.39,-0.5c0,-0.31 -0.23,-0.55 -0.59,-0.55l-1.01,0l0,1.99z" id="svg_7"/>
  <path d="m179.61,88.79l0,-0.57l0.51,0c0.17,0 0.29,0.13 0.29,0.29c0,0.16 -0.13,0.29 -0.28,0.29l-0.52,-0.01z" fill="#fff" id="svg_8"/>
 </g>
</svg>