<?xml version="1.0" encoding="UTF-8" standalone="no"?>
<!-- Created with Inkscape (http://www.inkscape.org/) -->

<svg
   xmlns:dc="http://purl.org/dc/elements/1.1/"
   xmlns:cc="http://creativecommons.org/ns#"
   xmlns:rdf="http://www.w3.org/1999/02/22-rdf-syntax-ns#"
   xmlns:svg="http://www.w3.org/2000/svg"
   xmlns="http://www.w3.org/2000/svg"
   version="1.1"
   width="571.00098"
   height="91.529083"
   id="svg3021">
  <defs
     id="defs3023" />
  <metadata
     id="metadata3026">
    <rdf:RDF>
      <cc:Work
         rdf:about="">
        <dc:format>image/svg+xml</dc:format>
        <dc:type
           rdf:resource="http://purl.org/dc/dcmitype/StillImage" />
        <dc:title></dc:title>
      </cc:Work>
    </rdf:RDF>
  </metadata>
  <g
     transform="translate(-283.07108,-345.04753)"
     id="layer1">
    <path
       d="m 401.34092,345.05353 c -0.0952,0 -0.0195,-0.12501 -8.78904,0.76607 -2.51551,0.25638 -5.10855,0.86069 -7.45132,1.43448 -2.34369,0.57378 -4.44108,1.21167 -6.6883,2.09982 -2.34399,0.92783 -2.31408,1.01329 -6.49512,3.34507 -0.78805,0.4395 -1.5999,0.95529 -2.38916,1.6237 -0.46636,0.39677 -2.38457,2.11508 -4.01194,4.01347 -0.67238,0.78438 -1.31148,1.67253 -1.91091,2.67361 -0.54966,0.91562 -1.02183,1.88313 -1.43325,2.96051 -0.35526,0.93393 -0.72945,1.88007 -0.85946,2.96051 -0.15871,1.3307 0,2.77433 0,4.20575 0.38151,1.81598 0.38151,1.81598 1.05023,4.01347 0.19191,0.38151 0.38273,0.76302 0.57347,1.23914 0,0.1924 0,0.38456 -0.0952,0.6684 -0.0955,0 -0.19069,0.0977 -0.38151,0.1924 -1.62399,0 -3.24891,0 -4.87261,0.0977 -3.82119,0.38151 -3.82119,0.38151 -7.73883,1.04991 -5.06338,1.43448 -5.06338,1.43448 -6.97307,2.09983 -1.90999,0.95835 -1.90999,0.95835 -2.48468,1.05264 -2.96144,1.62402 -3.43846,2.00553 -3.82119,2.10075 -2.76945,1.91121 -2.8659,2.10317 -3.53491,2.48468 -0.76394,0.66872 -1.52696,1.33742 -2.38794,2.00521 -1.05023,1.05145 -2.10165,2.10319 -3.15218,3.1534 0,0.0952 0,0.19069 -0.0964,0.38273 -0.57228,0.6675 -1.14575,1.33651 -1.81476,2.10075 -1.71893,2.77067 -1.71893,2.77067 -3.15218,5.4458 -0.38151,1.05052 -0.76424,2.10197 -1.24219,3.15249 -0.66872,2.5799 -0.66872,2.5799 -1.05145,4.68065 0,1.33742 0,2.77067 -0.0942,4.20361 -0.38273,0.86068 -0.38273,0.86068 -0.95498,1.52969 -11.94245,4.58514 -12.99388,4.87142 -19.77641,7.35459 -8.31093,2.77067 -8.31093,2.77067 -14.61658,4.68187 -0.3815,0.28629 -0.76421,0.57225 -1.14689,0.85976 -0.0942,0.28721 -0.28614,0.66872 -0.47688,1.05023 0,0.66869 0,1.33771 0,2.10316 0.38271,1.14575 0.38271,1.14575 0.66882,1.62371 1.33766,0.66872 1.33766,0.66872 2.0065,0.85946 0.47688,0 1.05033,0 1.62382,0 0.47688,-0.0965 0.95496,-0.19069 1.43184,-0.28719 12.89858,-4.2027 14.80849,-4.96786 18.91682,-6.30435 4.68066,-1.81598 9.36253,-3.63045 14.13841,-5.44612 0.38273,0 0.76424,0 1.24129,0 1.91089,1.72044 1.91089,1.72044 2.29362,2.19718 0.19069,0.0967 0.3815,0.19191 0.66779,0.38273 0.19191,0.19069 0.38273,0.47795 0.66872,0.76423 0.0967,0 0.19191,0 0.38273,0.0952 0.28628,0.19069 0.57347,0.47827 0.85975,0.76424 1.43296,0.76424 2.86712,1.52847 4.39437,2.29271 1.52848,0.38273 3.05818,0.85946 4.68188,1.33774 2.10075,0.38272 2.10075,0.38272 5.44489,0.76423 2.00643,0 4.01286,0 6.01929,0 3.24772,-0.38151 3.24772,-0.38151 7.16536,-1.05052 2.38671,-0.66872 4.77587,-1.33742 7.16411,-2.10165 1.81446,-0.66902 3.63013,-1.33774 5.44582,-2.10198 1.81476,-0.76423 3.63042,-1.6237 5.44489,-2.48467 2.77067,-1.52819 5.63685,-3.05544 8.50184,-4.58514 0.38273,0 0.38273,0 0.76514,0.28721 0.95501,1.71922 0.95501,1.71922 1.24129,2.48346 0.76546,0.955 1.52848,1.91121 2.29272,2.96143 0.38273,0.38273 0.86068,0.76424 1.33741,1.14575 1.52848,0.86068 1.52848,0.86068 2.48468,1.24219 0.47705,0.0955 0.955,0.19192 1.52848,0.28751 2.48348,0 2.48348,0 5.25415,-0.28751 1.71921,-0.47673 3.43936,-0.955 5.25505,-1.43296 4.01071,-1.6237 4.01071,-1.6237 4.58543,-1.71921 2.10072,-1.05145 4.29792,-2.10166 6.49632,-3.15218 1.14574,-0.76424 1.90998,-1.05145 4.68065,-2.67544 0.57349,-0.286 1.14697,-0.57228 1.71924,-0.85947 0.38273,0 0.38273,0 1.05143,0.38151 0.57227,0.76424 1.14574,1.5297 1.71924,2.29394 1.0502,1.0502 1.0502,1.0502 1.52848,1.71921 0.66869,0.38151 1.43293,0.76395 2.19717,1.24098 1.90998,0.66872 1.90998,0.66872 3.53491,1.05145 3.63044,0.0955 3.63044,0.0955 5.63687,0 1.14575,-0.1907 2.38794,-0.47674 3.63014,-0.76424 4.58542,-1.33742 4.58542,-1.33742 7.16411,-2.29242 0.47795,0 0.95622,0 1.43418,0 0.47702,0.66872 0.95498,1.33651 1.52847,2.00521 0.57225,0.57471 1.14575,1.14696 1.71922,1.72046 0.66872,0.28597 1.33773,0.6687 2.00643,1.0502 1.24219,0.38273 1.24219,0.38273 2.10075,0.47796 2.00643,0 4.01286,0 6.11481,-0.0952 3.53491,-0.76423 3.53491,-0.76423 5.92285,-1.43293 0.955,-0.28628 1.90998,-0.66901 2.86621,-1.05174 4.2036,-2.10044 4.68065,-2.48317 6.97305,-3.72446 0.861,0 0.861,0 1.24251,0.1907 1.14696,1.33651 1.14696,1.33651 1.33771,1.81476 1.52818,1.52818 1.52818,1.52818 2.29242,2.10165 0.38273,0.0955 1.43325,0.85978 2.96141,1.52848 0.76424,0.19069 1.52847,0.38151 2.29271,0.5735 0.95501,0 1.91121,0 2.86621,0 1.71922,-0.38273 1.71922,-0.38273 3.8221,-1.05023 2.76945,-1.62522 2.76945,-1.62522 4.77619,-3.05818 0.6687,-0.57347 1.43294,-1.24219 2.19718,-1.90998 0.19191,0 0.47795,0 0.76423,0 0.1907,0.0955 0.38273,0.19069 0.66872,0.38151 0.47825,0.66901 1.05175,1.33773 1.624,2.00643 2.00643,1.81476 2.00643,1.81476 3.05788,2.58022 1.0493,0.28599 2.10073,0.6675 3.15218,1.05023 1.52847,0 3.15217,0 4.77617,0.0952 0.86068,-0.0952 1.72014,-0.19069 2.57992,-0.28721 4.96662,-1.43172 4.96662,-1.43172 7.92806,-2.48346 0.2875,0 0.57347,0 0.86097,0 0.85947,0.57347 1.2422,0.66901 2.48317,1.43325 0.95622,0.28719 1.9112,0.6687 2.96143,1.05021 1.14575,0.0964 2.29394,0.28721 3.43969,0.47795 2.10194,0 2.10194,0 4.77709,-0.28596 1.52848,-0.47796 3.05574,-0.95501 4.58543,-1.43296 2.76945,-1.43326 4.68066,-2.67545 5.06339,-2.77067 1.0502,-0.76424 2.10165,-1.52848 3.15217,-2.29272 0.0952,-0.19069 0.28719,-0.38151 0.47796,-0.57347 0.0955,0 0.28628,-0.0955 0.47702,-0.19069 0.19192,-0.19069 0.38273,-0.38273 0.5735,-0.66901 0.19069,-0.0952 0.38241,-0.1907 0.6687,-0.38244 0.76423,-0.85854 4.29914,-4.2027 7.83405,-7.92835 0.57349,-0.76424 0.57349,-0.76424 2.5787,-2.67544 0.0967,-0.1907 0.1907,-0.38151 0.38273,-0.66872 0.47703,-0.47796 0.95498,-0.95498 1.52848,-1.43294 0.19069,-0.28628 0.38273,-0.57349 0.57225,-0.85978 15.09402,-16.43234 15.09402,-16.43234 17.67607,-19.10625 0.18923,-0.0955 0.38151,-0.18996 0.6684,-0.38211 2.09983,-2.10288 3.05513,-2.8659 3.62891,-3.5343 0.19216,-0.0977 0.38151,-0.19216 0.66841,-0.38151 0.76607,-0.86068 0.76607,-0.86068 3.53429,-3.15279 0.0977,0 0.19216,0 0.38151,-0.0977 0.0977,-0.0945 0.19216,-0.2869 0.38456,-0.47613 3.62891,-2.57899 4.01042,-2.67666 5.06033,-3.43968 2.96356,-1.52908 2.96356,-1.52908 4.87416,-2.2921 2.96051,-0.0977 2.96051,-0.0977 3.53429,0 0.38151,0.28384 0.76607,0.57379 1.2422,0.85763 0.1924,0.38456 0.47612,0.76607 0.76301,1.14758 0,0.38151 0,0.76607 0,1.24219 -0.0945,0.28689 -0.28689,0.57379 -0.47612,0.86068 -2.10287,1.71832 -2.48438,2.19749 -3.15279,2.579 -0.1924,0.18923 -0.3815,0.38151 -0.57379,0.66841 -0.0945,0 -0.28689,0.0945 -0.47612,0.18922 -2.48438,2.29516 -5.06338,4.58726 -7.64238,6.97581 -6.68708,6.68709 -7.64238,7.83405 -8.50306,8.59798 -0.86069,1.14574 -2.48439,2.96172 -3.15279,3.53522 0,0.0952 -0.0945,0.28597 -0.19216,0.47673 -0.28689,0.19192 -0.57074,0.47796 -0.86068,0.76424 -0.28385,0.57347 -0.76302,0.95498 -1.14453,1.6237 -0.47917,0.38273 -0.47917,0.38273 -2.96051,3.53491 0,0.0955 0,0.19191 -0.0977,0.38273 -0.28385,0.28628 -0.57074,0.66901 -0.95225,1.05052 -1.05296,1.52816 -2.10441,3.15218 -3.25016,4.7771 -0.95498,1.71922 -1.90998,3.53368 -2.86619,5.34935 -0.19069,0.47705 -0.3815,1.05174 -0.66872,1.62492 -0.28628,1.24129 -0.66779,2.48348 -1.05052,3.81997 0,0.85978 0,1.81569 0,2.77189 0.0955,0.47705 0.28629,0.955 0.47705,1.43203 0.76424,0.95469 0.76424,0.95469 1.33771,1.33742 0.57318,0.0955 1.24219,0.28628 1.91091,0.47827 0.6678,0 1.33649,0 2.00551,0 0.57318,-0.0955 1.24068,-0.19192 1.91213,-0.28751 4.01042,-1.43296 4.01042,-1.43296 5.44489,-2.10043 1.52909,-0.95623 1.9106,-1.05174 4.30037,-2.67544 0.38151,-0.38273 0.76302,-0.47796 0.95224,-0.76424 0.38151,-0.19192 0.76607,-0.47796 1.14758,-0.76424 3.43968,-3.05788 3.43968,-3.05788 3.91581,-3.34417 1.33985,-1.43293 2.67666,-2.86618 4.11113,-4.29914 1.71527,-2.10073 3.43663,-4.2036 5.25262,-6.30435 0.19215,-0.47825 1.04991,-1.43294 1.52908,-2.29272 0.18923,-0.28719 0.47612,-0.57469 0.76302,-0.86068 0,-0.0955 0,-0.1907 0.0945,-0.38273 0.19216,-0.28629 0.47918,-0.57225 0.76607,-0.85854 3.34507,-5.06309 3.43663,-5.44582 5.06033,-7.93049 0.0977,0 0.28995,-0.0942 0.47918,-0.18948 0.28689,0 0.57379,0 0.86068,0.0952 0.0945,0.19069 0.28689,0.38151 0.47917,0.57347 0.38151,0.18947 0.76302,0.38151 1.23914,0.66901 0.47918,0.094 1.05297,0.18948 1.62371,0.38151 1.33985,0 2.77127,0 4.20575,0 1.81598,-0.19191 3.62891,-0.38151 5.5395,-0.66901 1.33681,-0.19192 2.77128,-0.47796 4.2027,-0.76424 0.47918,0 1.05297,0.0955 1.6237,0.19069 0.57379,0.38151 1.14758,0.76424 1.72137,1.24251 0.38151,0.57348 0.76302,1.14575 1.14758,1.81445 0.18923,0.85978 0.38151,1.72046 0.6684,2.67544 0,1.43296 0,2.96144 0,4.48991 -0.0977,0.28597 -0.28689,0.6687 -0.47917,1.05143 -0.47613,0.47673 -0.47613,0.47673 -1.14453,0.85946 -6.68708,1.33651 -6.68708,1.33651 -12.80343,2.77099 -5.06338,1.43171 -5.06338,1.43171 -9.26608,2.76944 -2.19749,0.95498 -4.39498,1.91089 -6.68709,2.8659 -3.43968,1.81598 -4.01347,2.29271 -4.8711,2.77067 -1.05296,0.85975 -1.05296,0.85975 -2.00521,2.00672 -0.1924,0.38273 -0.47917,0.76424 -0.76607,1.24097 -0.1924,0.76546 -0.38151,1.52848 -0.6684,2.29394 0,1.24097 0,2.48316 0,3.82089 0.28689,0.85976 0.57379,1.71922 0.85763,2.67423 0.57684,0.86068 1.14758,1.72044 1.81598,2.67544 0.38456,0.38273 0.76607,0.76514 1.14758,1.24219 0.47612,0.1907 0.47612,0.1907 2.10288,1.52848 0.85763,0.38151 2.19443,1.24219 5.34722,2.6739 1.6237,0.47828 3.2474,0.95623 4.96877,1.43448 2.38977,0.28599 2.38977,0.28599 4.48959,0.28599 1.04992,-0.0952 2.10288,-0.1907 3.15279,-0.28599 3.05817,-0.76546 3.05817,-0.76546 5.158,-1.43448 1.14758,-0.57225 2.10287,-0.85824 3.43968,-1.6237 0.19216,-0.094 0.47612,-0.19069 0.76607,-0.28596 3.2474,-2.10198 3.2474,-2.10198 4.8711,-3.34417 0.1924,-0.28628 0.76302,-0.57225 3.05818,-2.67422 1.23914,-1.5297 1.23914,-1.5297 2.00521,-2.19717 0.28689,-0.5735 1.14452,-1.52848 2.86589,-4.01196 0.47612,-0.86068 1.04991,-1.81566 1.6237,-2.77189 0.6684,-1.71922 1.33681,-3.43846 2.10288,-5.25413 0.6684,-3.15217 0.6684,-3.15217 1.04991,-4.29914 0.0945,-0.094 0.18923,-0.19069 0.28689,-0.28599 1.71832,-0.38273 1.71832,-0.38273 4.68188,-0.76424 1.6237,0 3.34201,-0.0955 5.06338,-0.19069 3.34201,0.19069 3.34201,0.19069 4.58421,0.38151 0.19216,0.0964 0.38151,0.19069 0.6684,0.38273 0,0.28599 0,0.66872 0.0947,1.05022 -0.2869,0.76424 -0.66841,1.52848 -1.04992,2.29272 -0.0945,0.47795 -0.1924,1.05142 -0.3815,1.62492 0,0.76302 0,1.52848 0,2.38794 0.3815,1.62399 0.3815,1.62399 0.76301,2.579 0.47918,0.76424 0.86069,1.14665 1.04991,1.6237 0.67146,0.6687 0.67146,0.6687 2.00827,1.5297 0.76607,0.28596 1.52908,0.66869 2.38977,1.0502 0.57073,0.0955 1.14452,0.19069 1.81293,0.38151 0.76607,0 1.52908,0 2.2921,0 1.33986,-0.19069 2.67666,-0.47673 4.01347,-0.76302 0.6684,-0.19191 1.33986,-0.38273 2.10288,-0.66869 4.2027,-2.10198 4.67882,-2.48471 5.06338,-2.57993 0.85763,-0.76424 1.33681,-0.95498 4.39193,-3.5352 0,-0.0952 0.0977,-0.19069 0.1924,-0.28599 0.28689,-0.0955 0.57379,-0.19069 0.86068,-0.38273 0.18923,0 0.47918,0 0.76302,0.0955 0.0977,0.0964 0.2869,0.28721 0.47918,0.47795 0.28689,0.66872 0.6684,1.33774 1.04991,2.10198 0.76301,0.86068 0.76301,0.86068 1.24219,1.6237 0.6684,0.38273 0.86068,0.66869 2.579,1.6237 0.38151,0.0967 0.76302,0.19191 1.24219,0.38273 0.57379,0 1.24219,0 1.9106,0.0955 0.76607,-0.0955 1.52908,-0.19069 2.2921,-0.28628 0.67145,-0.19191 1.33986,-0.47795 2.10288,-0.76424 0.86068,-0.47795 1.81598,-0.95591 2.77127,-1.52818 0.85764,-0.57347 1.81293,-1.24249 2.76823,-1.91121 0.57379,-0.47824 1.24219,-1.05052 1.9106,-1.62399 0.28994,0 0.57379,0 0.95529,0.0955 0.19241,0.19069 0.38151,0.38151 0.57379,0.66869 0.66841,1.43326 1.43448,2.48471 1.52909,2.86622 0.57379,0.57347 1.14758,1.14574 1.81598,1.81444 0.2869,0.19069 0.57074,0.38273 0.9553,0.57349 2.09982,0.66902 2.09982,0.66902 3.34201,0.85976 0.47918,0 0.9553,0 1.52909,0 2.10288,-0.38151 2.10288,-0.38151 3.72658,-0.85976 1.04991,-0.47673 2.10287,-1.05145 3.15279,-1.6237 0.76301,-0.57349 1.52908,-1.14574 2.38671,-1.72046 1.14758,-1.05021 2.29211,-2.10073 3.5343,-3.15218 0.28995,0 0.67146,0 1.05296,0.0965 0.57379,1.33651 0.57379,1.33651 1.33681,2.579 0.38151,0.57227 0.86068,1.14574 1.33681,1.71924 0.0947,0 0.28689,0 0.47917,0.0952 0.2869,0.19192 0.57379,0.47796 0.85763,0.76424 0.86069,0.38273 1.72137,0.76546 2.67667,1.24219 0.9553,0.19192 1.91059,0.38273 2.96051,0.66902 1.91059,0.19069 1.91059,0.19069 4.39497,0.19069 2.96051,-0.38151 2.96051,-0.38151 6.1133,-1.05052 0.6684,-0.19192 1.33986,-0.47796 2.10288,-0.76424 0.47917,0 0.95529,0 1.43142,-0.0964 1.14757,0.28718 1.14757,0.28718 3.05817,1.05142 1.33681,0.19192 2.67361,0.38273 4.10808,0.66901 1.62371,0 3.24741,0 4.87111,0 1.14758,-0.19069 2.38977,-0.38272 3.63196,-0.66901 0.9553,-0.28597 2.00521,-0.6687 3.05512,-1.05142 1.24525,-0.66873 2.48439,-1.33652 3.72658,-2.00521 0.76607,-0.5735 1.52908,-1.14697 2.38977,-1.71925 1.3368,-1.33771 2.76822,-2.67544 4.2027,-4.01315 1.71831,-2.1972 3.43968,-4.48991 5.15799,-6.78231 1.9106,-2.96143 1.9106,-2.96143 2.579,-4.20392 0.2869,-0.19191 0.57379,-0.38151 0.86069,-0.5735 0.47917,0 0.47917,0 2.38671,0.66902 1.43448,0.95622 1.43448,0.95622 1.72137,1.33773 0.0945,0.38151 0.0945,0.38151 0.0945,2.48439 -0.28689,1.05052 -0.28689,1.05052 -2.38671,5.92284 -0.0977,0.47703 -0.19241,0.95498 -0.38457,1.43203 0,0.38273 0,0.86069 0,1.33771 0.0977,0.38273 0.19216,0.76517 0.38457,1.2422 0.28689,0.47795 0.57073,0.955 0.85763,1.43295 2.00826,2.38824 2.00826,2.38824 3.05817,3.43847 0.57379,0.38272 1.24219,0.86068 1.9106,1.33771 0.47917,0.19191 0.95529,0.38272 1.43447,0.57349 0.9553,0 1.91059,0 2.96051,0 4.87415,-1.43325 4.87415,-1.43325 6.68708,-2.10197 1.04991,-0.47796 2.10288,-0.95498 3.15279,-1.43294 3.2474,-1.62401 6.49785,-3.34323 9.74525,-5.06216 8.78996,-4.87264 10.316,-5.82762 11.08207,-6.11483 2.579,-1.43325 2.579,-1.43325 5.5395,-2.86619 0.76607,-0.28628 1.52909,-0.57349 2.29211,-0.85978 0.57379,0 1.14758,0 1.81598,0 0.28689,0.28629 0.57379,0.5735 0.9553,0.95501 0,0.66901 0,1.33771 0,2.10317 -0.19241,0.76301 -0.38151,1.52725 -0.57379,2.29271 0,0.19069 0,0.38151 0.0977,0.57228 0.0945,0 0.28385,0 0.47613,0.0952 0.28689,-0.19069 0.57379,-0.47673 0.95529,-0.76424 0.76607,-1.14667 0.76607,-1.14667 2.19749,-4.1084 0.19241,-0.76302 0.38151,-1.6237 0.66841,-2.48316 0,-1.05175 0,-2.10195 0,-3.15218 -0.19241,-0.66901 -0.47613,-1.33771 -0.76302,-2.10195 -0.28689,-0.38273 -0.57379,-0.76424 -0.86068,-1.14575 -0.2869,-0.28721 -0.66841,-0.57349 -1.04992,-0.86068 -0.47917,-0.0955 -1.05296,-0.28628 -1.6237,-0.47705 -0.95529,0 -1.91364,0 -2.96356,0 -0.85763,0.19069 -1.81598,0.38151 -2.76822,0.66901 -0.95835,0.28599 -1.91365,0.66872 -2.86895,1.05023 -5.73178,2.86619 -5.73178,2.86619 -6.11329,2.96141 -4.01042,2.29272 -5.06339,3.05696 -7.83161,4.58514 -5.06339,3.05695 -5.06339,3.05695 -7.54777,4.77739 -1.81598,1.05023 -3.72658,2.10075 -5.63717,3.15218 -0.76302,0.28599 -1.52909,0.66872 -2.38672,1.05145 -0.67145,0.0955 -1.33986,0.28628 -2.10288,0.47702 -0.6684,0 -1.3368,0 -2.0052,0 -0.2869,-0.0955 -0.57379,-0.19069 -0.9553,-0.3815 -0.0977,-0.0955 -0.28995,-0.28751 -0.47918,-0.47825 -0.0945,-0.28599 -0.19216,-0.5735 -0.38151,-0.95501 0,-0.28718 0,-0.57317 0,-0.85946 0.18923,-0.66869 0.38151,-1.33771 0.66841,-2.00643 0.1924,-0.38273 0.47612,-0.76424 0.76301,-1.14697 1.33681,-3.15217 1.33681,-3.15217 2.10288,-5.44489 0,-0.85946 0,-1.72044 0,-2.67512 -0.28689,-0.5735 -0.57379,-1.14575 -0.86068,-1.72047 -0.47613,-0.38151 -0.9553,-0.85975 -1.52909,-1.33649 -0.57379,-0.28721 -1.14453,-0.57349 -1.71832,-0.85946 -1.6237,-0.47827 -1.6237,-0.47827 -2.48438,-0.85978 -0.86068,-0.57347 -0.86068,-0.57347 -1.24219,-0.6687 -0.86069,-0.76545 -1.33681,-0.955 -1.52909,-1.24251 -0.85763,-0.47795 -1.71831,-1.0502 -2.67361,-1.6237 -0.38151,-0.0952 -0.86068,-0.19191 -1.33681,-0.38273 -0.47917,0 -0.9553,0 -1.43447,0 -0.38151,0.0955 -0.76302,0.1907 -1.24219,0.38273 -1.23914,0.85947 -1.23914,0.85947 -2.19444,1.81447 -0.38456,0.76546 -0.76607,1.52848 -1.24219,2.29272 -0.19216,0.85975 -0.19216,0.85975 -0.19216,2.48345 0.38151,1.05145 0.76607,1.5297 0.9553,2.10288 0,0.38151 0,0.76424 0,1.24129 -1.6237,2.96141 -1.6237,2.96141 -2.48439,4.2036 -2.2921,2.579 -2.2921,2.579 -4.39498,4.58543 -0.86068,0.66872 -1.71831,1.33773 -2.67361,2.00643 -0.38151,0.0952 -1.43447,0.85946 -4.01347,2.1972 -1.81598,0.76423 -1.81598,0.76423 -4.10809,1.43293 -0.6684,0.0955 -1.3368,0.19069 -2.09982,0.38273 -0.47917,0 -0.9553,0 -1.52909,0 -0.0945,0 -0.28689,-0.0965 -0.47917,-0.19191 0,-0.1907 0.0977,-0.47674 0.19216,-0.76302 0.47612,-0.28719 0.6684,-0.57318 1.24219,-0.86069 2.19749,-1.9112 2.19749,-1.9112 4.67882,-4.29914 0.38456,-0.66748 0.86068,-1.05021 1.24219,-1.71922 0.0977,-0.0952 0.2869,-0.19167 0.47918,-0.38244 0.57379,-0.85853 1.14452,-1.81476 1.81598,-2.77096 0.47612,-1.33651 1.04991,-2.67393 1.6237,-4.01164 0,-0.85978 0,-1.81568 0,-2.77067 -0.76302,-2.10075 -0.76302,-2.10075 -1.43142,-3.5349 -0.57684,-0.76424 -1.24524,-1.62402 -1.91365,-2.48348 -0.9553,-0.76424 -0.9553,-0.76424 -1.71831,-1.14697 -0.38151,-0.0952 -0.76607,-0.19069 -1.14758,-0.28597 -1.04991,0 -2.09982,0 -3.15279,0.0952 -0.9553,0.19069 -2.00521,0.47824 -3.05512,0.76424 -1.72137,0.66869 -1.72137,0.66869 -3.82119,1.71921 -1.52909,0.95623 -1.72137,1.2422 -2.77128,1.91121 -0.86068,0.86068 -1.43447,1.24219 -3.2474,3.2474 -0.47918,0.66902 -1.04991,1.33774 -1.62675,2.10319 -0.0945,0.38151 -0.85764,1.43294 -1.9106,3.53369 -0.28689,1.05143 -0.6684,2.10317 -1.04991,3.1534 -0.0947,0.66779 -0.1924,1.33649 -0.2869,2.10195 0,1.14574 0,2.29242 0.0945,3.53368 0.1924,0.5735 0.38456,1.14697 0.57379,1.72047 0,0.28596 0,0.66869 0,1.0502 -0.18923,0.19069 -0.38151,0.47795 -0.57379,0.76424 -0.38151,0.19191 -0.76302,0.38273 -1.23914,0.57349 -1.2422,0.1907 -1.2422,0.1907 -3.91886,0.1907 -0.57074,-0.0955 -1.14758,-0.1907 -1.71832,-0.38151 -1.52908,-0.76424 -1.52908,-0.76424 -2.38671,-1.43325 -0.47918,-0.95469 -0.47918,-0.95469 -0.86374,-1.43296 -0.0945,-0.38273 -0.18923,-0.76424 -0.38151,-1.24219 -0.0945,-3.34292 -0.0945,-3.34292 0,-5.06339 0.2869,-1.0502 0.57379,-2.19717 0.9553,-3.34292 0,-0.2875 0,-0.57349 0,-0.86068 -0.0945,-0.19069 -0.18923,-0.47705 -0.38151,-0.76302 -0.57379,-0.38273 -0.57379,-0.38273 -2.67361,-1.14696 -1.81598,-0.0967 -1.81598,-0.0967 -2.67667,0 -0.18922,0.0952 -0.38151,0.19069 -0.6684,0.3815 -0.28689,0.28719 -0.57074,0.57348 -0.85763,0.95621 -0.6684,1.43295 -1.05297,1.90969 -1.33681,2.67515 -1.91364,2.67422 -1.91364,2.67422 -2.20054,3.24769 -0.47612,0.38273 -0.85763,1.05023 -3.2474,3.2474 -0.47612,0.28751 -0.9553,0.5735 -1.52909,0.95623 -0.76302,0.28628 -1.52603,0.66901 -2.38672,1.05052 -0.57379,0.0952 -1.24219,0.19069 -1.91059,0.28719 -0.57379,0 -1.14758,0 -1.81598,0 -0.38151,-0.0965 -0.76302,-0.19192 -1.24219,-0.28719 -0.66841,-0.38151 -0.66841,-0.38151 -1.62371,-1.24251 -0.19215,-0.38151 -0.3815,-0.85946 -0.57378,-1.33649 0,-0.86068 0,-1.72014 0,-2.67515 0.28689,-1.05142 0.6684,-2.10195 1.04991,-3.1534 0.76607,-1.33649 0.76607,-1.33649 1.24524,-2.57868 0,-0.85978 0,-0.85978 -0.1924,-1.24251 -0.2869,-0.19069 -0.6684,-0.38273 -1.05296,-0.57225 -0.47613,-0.0964 -1.04992,-0.19191 -1.62371,-0.38273 -0.6684,0 -1.3368,0 -2.09982,0 -0.28689,0.0955 -0.6684,0.1907 -1.04991,0.38273 -0.38456,0.28629 -0.76607,0.57225 -1.14758,0.95498 -0.47612,0.85978 -0.9553,1.71925 -1.52909,2.57871 -1.81598,2.29271 -1.81598,2.29271 -4.48959,5.1589 -0.6684,0.47795 -0.86068,0.76424 -2.10288,1.6237 -1.6237,0.86068 -1.6237,0.86068 -3.14973,1.43418 -0.86374,0 -1.72137,0 -2.67667,0 -0.3815,-0.0965 -0.86068,-0.19192 -1.3368,-0.38273 -0.47918,-0.28599 -0.9553,-0.5735 -1.43447,-0.85946 -0.38151,-0.47796 -0.76302,-0.95501 -1.14453,-1.52848 0,-0.5735 0,-1.24219 0,-1.91121 1.23914,-2.29242 1.23914,-2.29242 2.67361,-4.58513 0.0945,-0.47796 0.2869,-0.9562 0.47918,-1.52848 0,-0.57347 0,-1.24219 0,-1.9112 -0.0977,-0.47796 -0.28995,-0.95469 -0.47918,-1.43294 -0.86068,-0.85946 -1.71831,-1.71924 -2.579,-2.5787 -0.38151,-0.1907 -0.86068,-0.38273 -1.3368,-0.6687 -0.9553,-0.2875 -2.00826,-0.5735 -3.05818,-0.85978 -1.3368,0 -2.67361,0 -4.01347,0 -1.14452,0.19069 -2.38672,0.38151 -3.62891,0.66901 -1.04991,0.28599 -2.09982,0.66872 -3.15279,1.05023 -1.43142,0.6687 -2.86589,1.33649 -4.39498,2.10195 -1.91059,1.24097 -3.9158,2.48316 -5.92101,3.72567 -0.1924,0 -0.47917,0.0952 -0.76607,0.1907 -6.59247,0 -13.27955,0 -19.96664,0.0952 -0.1924,-0.0952 -0.38151,-0.19069 -0.57379,-0.28599 -0.3815,-0.86098 -0.3815,-0.86098 -1.04991,-3.24769 -0.47612,-1.05145 -0.9553,-2.19842 -1.43447,-3.34417 -0.66535,-1.05142 -1.43142,-1.90998 -1.52603,-2.29271 -2.77128,-2.67513 -2.77128,-2.67513 -3.05818,-3.1534 0,-0.38151 0,-0.38151 0.19216,-0.66748 1.71832,-0.861 5.06338,-2.19841 7.83161,-3.63044 0.47917,-0.38273 1.24219,-0.6687 2.29516,-1.43416 0.6684,-0.28599 0.6684,-0.28599 3.82119,-2.38733 0.28689,-0.1924 0.57073,-0.47612 0.86068,-0.76607 0.0916,0 0.18923,0 0.38151,-0.0945 2.00521,-1.72137 4.01042,-3.43663 6.01563,-5.158 1.24219,-1.43447 2.58205,-2.86589 3.91885,-4.30036 1.33681,-1.90755 1.33681,-1.90755 1.62371,-2.09983 0.47917,-0.86068 1.04991,-1.81598 1.6237,-2.77128 0.57379,-1.24219 1.14757,-2.48438 1.81598,-3.82119 0.28689,-1.24219 0.57379,-2.48438 0.86068,-3.72657 0,-1.04991 0,-2.19749 0,-3.34507 -0.19216,-0.85763 -0.47917,-1.71832 -0.76607,-2.57595 -0.38151,-0.67145 -0.76302,-1.33986 -1.14758,-2.10287 -2.19443,-1.81598 -2.19443,-1.81598 -3.43663,-2.579 -1.72136,-0.6684 -1.72136,-0.6684 -3.15278,-1.05297 -0.86069,-0.0945 -1.72137,-0.18922 -2.67667,-0.28384 -3.43663,0.18923 -3.43663,0.18923 -5.5395,0.47613 -1.62371,0.47917 -3.34507,0.95529 -5.06339,1.43447 -1.6237,0.57073 -3.2474,1.14452 -4.96877,1.71831 -6.11329,2.8659 -6.11329,2.8659 -11.55818,5.63717 -1.72137,0.95225 -3.53735,1.9106 -5.35028,2.96051 -9.36375,5.8264 -9.36375,5.8264 -10.03215,6.1133 -0.47612,0 -0.9553,0 -1.43142,0 -0.2869,-0.0945 -0.57379,-0.2869 -0.86069,-0.47613 -0.57378,-0.57379 -1.24219,-1.14757 -1.91059,-1.81598 -0.76302,-0.28689 -1.6237,-0.6684 -2.48439,-1.04991 -1.3368,-0.28689 -1.3368,-0.28689 -4.29731,-0.47917 -1.24219,0.1924 -2.579,0.3815 -3.91886,0.6684 -0.85763,0.28689 -1.81598,0.6684 -2.76822,1.05296 -2.67667,1.43142 -2.67667,1.43142 -6.97398,4.10504 -0.19216,0.28994 -2.10288,1.62675 -2.38977,2.00826 -0.0947,0 -0.2869,0.0977 -0.47612,0.1924 -0.19216,0.18923 -0.38456,0.47612 -0.66841,0.76302 -0.0977,0 -0.1924,0 -0.38456,0.0945 -0.47612,0.57379 -2.38672,2.10288 -4.01042,3.72658 -0.86068,0.6684 -6.7817,6.59247 -8.50367,8.50213 -0.47674,0.47796 -0.95469,0.95623 -1.52819,1.43296 -0.0955,0.19192 -0.19191,0.38273 -0.38273,0.6687 -0.57225,0.47827 -1.14574,1.05174 -1.71921,1.62524 0,0.0952 -0.0955,0.28596 -0.1907,0.47795 -0.57347,0.57225 -1.14696,1.14575 -1.81566,1.718 0,0.0964 0,0.19191 -0.0942,0.38273 -1.05142,0.955 -1.05142,0.955 -2.86711,2.96143 -0.0955,0.19192 -0.1907,0.38273 -0.38151,0.6687 -0.38273,0.38273 -0.86098,0.76546 -1.33771,1.24251 -1.14697,1.33771 -2.29272,2.67391 -3.43968,4.01164 -0.38273,0.38273 -0.76424,0.76546 -1.24097,1.14697 -0.0967,0.19069 -0.1907,0.38151 -0.38273,0.66869 -2.1972,2.38826 -3.82119,3.91642 -6.21035,6.59186 -0.1907,0.0955 -0.38151,0.19192 -0.66873,0.38151 -0.47702,0.47827 -0.95498,0.95623 -1.43203,1.52848 -0.19167,0.0964 -0.38241,0.19191 -0.66869,0.38273 -0.19192,0.28599 -0.47796,0.57349 -0.76424,0.85946 -2.38916,1.81569 -2.38916,1.81569 -2.57993,2.10197 -0.0952,0 -0.19069,0 -0.38151,0.0952 -0.85946,0.76423 -0.85946,0.76423 -3.5349,2.48345 -0.85946,0.47918 -1.72044,0.95623 -2.5799,1.43418 -0.76424,0.28629 -1.62371,0.66902 -2.48349,1.05052 -0.76423,0.0952 -1.52847,0.28719 -2.29271,0.47796 -0.95591,0 -1.91089,0 -2.96141,0 -0.86068,-0.28721 -0.86068,-0.28721 -1.43296,-0.66872 -0.19191,-0.47825 -0.19191,-0.47825 -0.19191,-1.14697 0.38273,-0.38151 0.86068,-0.76424 1.33771,-1.24097 1.33773,-0.9562 2.67544,-1.91243 4.01286,-2.86741 1.43325,-1.33651 2.86499,-2.76945 4.39468,-4.2024 0,-0.0955 0.0952,-0.28751 0.1907,-0.47703 0.19069,-0.0965 0.38273,-0.28721 0.57349,-0.47918 0.1907,-0.47705 1.05021,-1.62401 2.2924,-4.01195 0.0955,-0.38151 0.19191,-0.76424 0.28628,-1.24219 0,-0.95498 0,-1.90999 0,-2.96142 -0.0942,-0.47705 -0.19069,-0.955 -0.28628,-1.43203 -0.19069,-0.5744 -0.47673,-1.24219 -0.76424,-1.91091 -0.86068,-1.43325 -0.86068,-1.43325 -1.71892,-2.48468 -0.47825,-0.47705 -1.05175,-0.955 -1.62522,-1.43296 -0.47795,-0.19069 -1.05023,-0.47702 -1.6237,-0.76423 -0.57227,-0.0955 -1.14697,-0.1907 -1.71924,-0.38151 -0.47796,0 -1.05143,0 -1.62492,0 -0.76424,0.0952 -1.52726,0.19069 -2.29272,0.38151 -0.66869,0.19069 -1.43293,0.38273 -2.19595,0.66872 -0.95622,0.47824 -1.9112,0.9562 -2.86621,1.43293 -0.6687,0.47827 -1.33742,0.95501 -2.10165,1.43325 -0.85976,0.85947 -1.33771,1.14697 -3.24892,3.24741 -1.81447,2.38947 -1.81447,2.38947 -2.10197,2.58021 -0.85947,1.62371 -0.85947,1.62371 -1.24219,2.10166 -1.33771,3.34294 -1.33771,3.34294 -1.71922,4.58665 -0.0952,0.76302 -0.1907,1.52725 -0.38151,2.29242 0,1.33649 0,1.33649 0.19069,2.96141 0.38273,1.0493 0.76424,2.19749 1.24127,3.34324 0,0.38151 0,0.85946 -0.0942,1.33741 -0.47796,0.47828 -0.47796,0.47828 -1.5297,1.05053 -1.0502,0.19191 -2.19717,0.38273 -3.34292,0.66872 -2.10165,0 -2.10165,0 -3.34294,-0.1907 -0.57469,-0.19069 -1.14819,-0.3815 -1.72044,-0.66872 -0.47796,-0.28628 -0.95469,-0.66901 -1.52818,-1.05052 -0.38273,-0.66869 -0.38273,-0.66869 -0.86098,-2.00643 0,-0.6687 -0.094,-1.33771 -0.19069,-2.00643 0.0967,-0.57347 0.19069,-1.14575 0.38273,-1.71922 0.76423,-1.43296 0.76423,-1.43296 1.71921,-2.77067 2.57993,-2.19719 2.57993,-2.19719 3.05696,-2.77066 0.38273,-0.0955 0.38273,-0.0955 0.76546,-0.47706 0.19069,-0.38272 0.3815,-0.76514 0.57227,-1.14665 0,-0.2875 0,-0.57349 0,-0.85978 -0.19069,-0.47795 -0.38151,-0.95498 -0.66901,-1.43415 -1.05023,-0.95501 -1.05023,-0.95501 -2.38794,-1.81447 -0.28751,-0.0955 -0.66902,-0.19069 -1.05052,-0.38151 -0.28722,0 -0.66873,0 -1.05145,0 -0.28597,0.0952 -0.6687,0.1907 -1.05021,0.38151 -0.85978,0.76517 -1.81569,1.62492 -2.77067,2.48317 0,0.0967 0,0.19191 -0.0955,0.38272 -1.05145,1.14697 -1.33773,1.72047 -1.6237,1.91121 -0.955,1.6237 -1.9112,3.34294 -2.86621,5.06338 -0.28719,0.1907 -0.76424,1.05023 -2.48438,3.15218 -1.90999,1.72046 -1.90999,1.72046 -3.82119,3.15218 -1.52848,0.66872 -1.52848,0.66872 -2.77067,1.05145 -2.67422,0.0955 -2.67422,0.0955 -3.72565,0 -1.05052,-0.38273 -1.05052,-0.38273 -1.71924,-0.76424 -1.05143,-1.05023 -1.05143,-1.05023 -1.52848,-1.33742 -0.19191,-0.38151 -0.38273,-0.85978 -0.6687,-1.33773 0,-0.38151 0,-0.76424 0,-1.24127 0.0952,-0.28721 0.1907,-0.57439 0.38151,-0.9559 2.1984,-1.81476 3.91764,-3.53491 4.96784,-4.39469 1.43326,-1.52848 2.86621,-3.05664 4.39469,-4.68187 0.38273,-0.6687 0.85946,-1.05021 1.14575,-1.62371 0.5744,-0.47673 1.05142,-1.24097 1.43415,-1.52847 0.76424,-1.14575 1.6237,-2.10166 4.48991,-6.11359 3.34292,-5.25415 3.34292,-5.25415 4.39437,-7.16413 0,-0.19192 0,-0.38273 0.0955,-0.5744 0.1907,-0.38151 0.47796,-0.85976 0.76424,-1.33771 0.38241,-1.24129 0.76392,-2.5781 1.24097,-3.91796 0.0965,-2.09982 0.0965,-2.09982 0,-3.14973 -0.18947,-0.66841 -0.18947,-0.66841 -0.76302,-1.52909 -0.57349,-0.57379 -0.57349,-0.57379 -1.24219,-0.9553 -0.38151,-0.0977 -0.76424,-0.19215 -1.24251,-0.38151 -0.47673,0 -1.0502,0 -1.6237,0 -0.66869,0.0945 -1.33771,0.18923 -2.10195,0.38151 -0.57349,0.18923 -1.24219,0.38151 -1.90998,0.66841 -2.96144,1.43142 -3.43939,1.81598 -3.82212,1.91059 -1.24097,0.9553 -1.71922,1.14453 -1.90998,1.43142 -0.28719,0.19216 -0.6687,0.38151 -1.05143,0.67146 -4.01196,3.62891 -4.01196,3.62891 -6.11361,5.73088 -1.05175,1.24097 -2.10195,2.57868 -3.24892,3.91642 -0.19069,0.47795 -1.6237,2.38793 -3.53368,5.54133 -1.43418,2.96141 -2.10198,4.77617 -2.86621,6.20913 -0.0952,0 -0.19192,0.0965 -0.38273,0.1907 -1.71893,0 -4.20239,-0.1907 -10.31722,-0.1907 -3.53491,0.38273 -3.53491,0.38273 -7.16533,1.05143 -1.05023,0.28628 -2.1972,0.66901 -3.34294,1.05052 -0.76424,0.28721 -1.5297,0.66872 -2.29272,1.05023 -1.91089,1.24219 -1.91089,1.24219 -2.96141,2.10317 -0.57472,0.57227 -1.14697,1.24097 -1.81569,1.90998 -0.76424,1.14575 -0.76424,1.14575 -1.6237,2.96144 -0.19069,0.66869 -0.38273,1.33771 -0.66901,2.10165 -0.19069,0.38151 -0.47673,0.76424 -0.76424,1.24249 -0.47795,0.19069 -0.95591,0.47673 -1.43293,0.76302 -1.05145,0.28721 -2.10198,0.66872 -3.15218,1.05145 -1.05145,0.0964 -2.19842,0.28628 -3.34417,0.47795 -0.95498,0 -1.90998,0 -2.96141,0 -0.57349,-0.0952 -1.14696,-0.19167 -1.72046,-0.28721 -0.47673,-0.1907 -1.0502,-0.47674 -1.6237,-0.76302 -0.38151,-0.28719 -0.85976,-0.57347 -1.33771,-0.9562 -0.28628,-0.47795 -0.66872,-0.95501 -1.05023,-1.52848 0,-0.57318 0,-1.14667 -0.0955,-1.81569 0.0955,-0.28596 0.28629,-0.66747 0.47705,-1.0502 2.5799,-1.81447 2.77189,-2.10075 3.91764,-2.86621 1.24097,-1.05143 1.90967,-1.43293 2.2924,-1.90999 2.00643,-1.62492 2.00643,-1.62492 3.91641,-3.44058 0.19191,-0.0942 0.38273,-0.18947 0.5735,-0.28628 0.47824,-0.57228 1.05052,-1.14546 1.6237,-1.71893 0.19191,-0.0955 0.38273,-0.19069 0.66901,-0.38151 2.19839,-2.29271 4.49111,-4.68187 6.78353,-7.06981 2.10073,-2.4847 2.10073,-2.4847 2.38823,-2.67545 0.28599,-0.57349 1.14668,-1.52847 1.33652,-2.00521 0.19167,-0.0967 0.19167,-0.0967 1.91088,-2.67544 0.38273,-0.955 0.76424,-1.90969 1.24251,-2.96266 0.0952,-1.91059 0.0952,-1.91059 0,-2.9605 -0.3815,-1.04991 -0.3815,-1.04991 -0.76423,-1.6237 -0.38273,-0.2869 -0.76424,-0.57379 -1.24129,-0.9553 -0.28719,-0.0945 -0.6687,-0.1924 -1.05143,-0.38151 -1.14697,0 -2.29271,0 -3.53491,0 -1.33773,0.28689 -2.67544,0.6684 -4.01286,1.04991 -1.52725,0.66841 -3.05695,1.33681 -4.58543,2.10288 -1.6237,1.04991 -3.34416,2.19444 -5.06216,3.34201 -0.95622,0.86039 -1.52969,1.14668 -1.9112,1.62463 -0.19167,0.0955 -0.38151,0.1907 -0.66872,0.38151 -0.76424,0.85976 -4.20361,4.10838 -6.59186,6.68708 -0.28597,0.47825 -0.86069,0.95621 -1.14665,1.5297 -0.28629,0.18947 -0.28629,0.18947 -2.76977,3.72565 -0.0964,0.38151 -0.0964,0.38151 -2.10287,3.82119 -0.28629,0.95469 -0.28629,0.95469 -1.33771,3.15218 -0.18948,0.19191 -0.47705,0.38273 -0.76302,0.66872 -0.19192,0 -0.47827,0 -0.76424,0 -1.52848,-0.47673 -3.05817,-0.95501 -4.68187,-1.43296 -1.91121,-0.38151 -3.8209,-0.76424 -5.82762,-1.24248 -6.9743,-0.0952 -6.9743,-0.0952 -8.6923,0 -3.5349,0.76545 -3.5349,0.76545 -5.82884,1.43325 -0.5735,0.19069 -1.14575,0.38273 -1.71924,0.66869 -0.85947,0.47827 -1.71893,0.95623 -2.67513,1.43296 -0.66901,0.57347 -0.66901,0.57347 -1.05052,0.66902 -1.05145,0.95498 -2.10166,2.00643 -3.24862,3.05695 -0.76424,1.05142 -1.6237,2.10165 -2.48348,3.15218 -0.47796,0.28718 -0.95499,0.66869 -1.43294,1.05142 -2.48348,1.33773 -5.06338,2.67544 -7.64209,4.01286 -0.9562,0.28629 -2.29271,1.05052 -4.10838,1.71924 -0.66901,0.38151 -0.66901,0.38151 -6.59186,2.48346 -1.24219,0.28721 -2.48348,0.66872 -3.72567,1.05145 -1.71922,0.28628 -3.43936,0.57347 -5.25412,0.85976 -1.72015,0 -3.43939,0 -5.25415,0 -1.2422,-0.1907 -2.48439,-0.38273 -3.82088,-0.66902 -1.05145,-0.47673 -2.19841,-0.95498 -3.34416,-1.43293 -1.24219,-0.85946 -1.24219,-0.85946 -2.5799,-2.10197 -0.0955,-0.47674 -0.0955,-0.47674 -0.85978,-1.71922 0,-0.38273 -0.0952,-0.76424 -0.1907,-1.14575 0.1907,-0.57318 0.1907,-0.57318 0.57228,-1.05145 0.2875,-0.19069 0.57347,-0.38273 0.9562,-0.6687 6.97337,-3.15217 8.78784,-3.82119 9.45685,-4.20392 3.34414,-1.33741 4.87232,-2.10165 5.82852,-2.38793 4.29793,-2.00643 6.11362,-2.67545 6.78263,-3.05696 0.19069,0 0.38273,0 0.57347,-0.0952 2.1972,-0.95623 4.39437,-2.00643 6.59157,-3.05817 0.19069,0 0.38273,0 0.57347,-0.0952 11.55972,-5.25415 11.55972,-5.25415 12.89621,-6.01839 1.91121,-0.85946 3.82241,-1.81444 5.82884,-2.77067 12.60871,-6.49631 13.46849,-7.06981 16.23916,-8.4063 10.03123,-5.6381 10.03123,-5.6381 11.08268,-6.11422 4.77617,-3.05817 5.92313,-3.91581 7.35609,-4.77649 4.20361,-3.15279 4.39437,-3.43968 5.06339,-3.82119 0.19069,-0.1924 0.3815,-0.47917 0.66869,-0.76302 0.0955,0 0.18947,0 0.38151,-0.0977 2.00643,-2.00521 2.00643,-2.00521 4.10718,-4.4896 0.47947,-0.86068 0.9562,-1.71831 1.43448,-2.67361 0.0952,-0.38456 0.19069,-0.76607 0.28596,-1.24219 0,-0.66841 0,-1.33986 0,-2.10288 -0.0952,-0.28689 -0.19069,-0.6684 -0.28596,-1.05296 -0.28629,-0.47612 -0.66902,-1.04991 -1.05175,-1.6237 -0.85946,-0.76302 -1.606,-1.75189 -2.5787,-2.48133 -0.95743,-0.71724 -2.1459,-1.33986 -3.34414,-1.9106 -0.81796,-0.39067 -1.47843,-0.82711 -5.73089,-2.10288 -1.49031,-0.4456 -3.02948,-0.80879 -4.58665,-1.04991 -5.23368,-0.81185 -5.25046,-0.75386 -8.02479,-0.86068 -2.19475,-0.0855 -4.39315,-0.0977 -6.68708,-0.0977 z m 5.92284,6.30863 c -0.0952,0 -0.01,0.01 -6.11481,0.76302 -1.63561,0.20143 -3.35972,0.60126 -5.06216,1.04991 -1.54862,0.40898 -3.09602,0.84848 -4.58636,1.43447 -1.19213,0.46697 -1.1958,0.45171 -2.96141,1.24219 -1.87184,0.83627 -3.65303,1.87092 -5.44489,2.96051 -0.88358,0.53717 -1.80255,1.04076 -2.5787,1.72137 -2.28906,1.9991 -4.08213,4.03483 -4.49111,4.48959 -0.46147,0.51275 -0.8549,1.18421 -1.24219,1.90755 -0.38395,0.72028 -0.66902,1.53214 -1.05053,2.29515 -0.0952,0.38151 -0.19069,0.76302 -0.28721,1.24219 0,1.14453 0,2.38672 0,3.62891 0.0965,0.47918 0.19192,0.9553 0.28721,1.43448 0.28629,0.6684 0.66902,1.3368 1.05053,2.09982 0.47795,0.57379 1.05142,1.14758 1.62492,1.81598 1.33649,0.9553 1.33649,0.9553 3.2474,2.00826 1.62399,0.57135 3.34414,1.14482 5.06338,1.71832 1.05052,0 2.10195,0 3.15218,0 0.66901,-0.19192 1.33771,-0.38151 2.10317,-0.66901 1.52725,-0.76424 1.52725,-0.76424 2.48348,-1.04931 6.97427,-3.53734 7.83283,-4.10808 9.26699,-4.77954 0.47705,-0.38151 1.90998,-1.04991 2.38671,-1.43142 0.76546,-0.28689 3.34417,-1.91059 4.96816,-2.77128 0.47796,-0.3815 0.86069,-0.47612 3.8209,-2.48438 1.24341,-0.6684 4.8418,-3.05207 5.63685,-3.62891 0.27896,-0.20144 0.83566,-0.49444 4.68188,-4.01347 0.6498,-0.5921 1.21838,-1.38259 1.71924,-2.19749 0.26919,-0.43645 0.53411,-0.99803 0.6687,-1.6237 0.15968,-0.74471 0.0693,-1.53214 0,-2.29211 -0.0274,-0.2991 -0.1382,-0.61651 -0.38151,-0.86068 -0.24319,-0.24099 -0.11452,-0.30521 -0.47796,-0.6684 -0.63788,-0.63483 -0.89425,-0.87595 -2.19749,-1.52909 -0.81062,-0.40287 -1.77264,-0.79964 -2.77066,-1.04991 -1.31024,-0.32657 -2.74565,-0.56769 -4.20361,-0.66841 -2.76366,-0.18922 -5.53921,-0.0945 -8.3111,-0.0945 z m 246.09477,2.09982 c 0,0.0945 0,0.0945 -2.86589,0.76607 -1.72137,0.66841 -3.43969,1.33681 -5.25567,2.09983 -5.54255,2.86589 -5.73178,3.05817 -7.16626,3.72657 -0.47612,0.38151 -1.24219,0.66841 -2.2921,1.43142 -4.29731,2.48439 -4.8711,2.96356 -7.26087,4.39498 -1.14453,0.86069 -1.52604,0.95835 -2.19749,1.52909 -1.43142,0.86068 -1.6237,1.14758 -4.29732,2.86589 -0.28689,0.38456 -0.95529,0.76607 -1.3368,1.2422 -0.0977,0 -0.19216,0 -0.2869,0 0,0.0945 -0.0977,0.28689 -0.19216,0.47917 -0.0945,0 -0.1924,0 -0.28689,0.0945 -0.18923,0.38151 -0.38151,0.86069 -0.57379,1.33681 -0.18923,1.24219 -0.38151,2.48438 -0.6684,3.72658 -1.04991,3.43968 -1.04991,3.43968 -2.09983,6.1139 0,0.28629 0,0.6687 0,1.05021 0.18923,0.19191 0.18923,0.19191 0.66841,0.19191 0.47612,-0.28719 0.9553,-0.57347 1.43142,-0.86068 1.14758,-0.38151 2.2921,-0.76424 3.43968,-1.14575 4.10809,-0.0952 4.10809,-0.0952 5.73179,0 1.3368,0.28751 2.67361,0.66901 4.01347,1.05052 0.85763,0.38244 1.71831,0.76395 2.67361,1.24219 0.76607,0 1.6237,0 2.48438,0 0.2869,-0.0955 0.66841,-0.19069 1.04992,-0.28628 0.57379,-0.28719 1.24219,-0.6687 1.91059,-1.0502 1.43447,-0.95623 2.86589,-2.00553 4.39498,-3.0585 2.19749,-1.91059 2.86589,-2.2921 3.34507,-2.86589 0.76302,-0.6684 1.52603,-1.43142 2.38672,-2.19749 0.19216,-0.0945 0.38456,-0.18923 0.6684,-0.38151 0.86068,-1.14757 2.77128,-3.15278 4.48959,-5.25261 0.38457,-0.76607 0.95835,-1.43447 3.15584,-5.44794 0.28385,-0.9553 0.66841,-1.9106 1.04992,-2.96051 0.0947,-0.47917 0.1924,-1.04991 0.28689,-1.6237 0,-1.14758 0,-2.2921 0,-3.43968 -0.0945,-0.2869 -0.19216,-0.57379 -0.28689,-0.86069 -0.38151,-0.3815 -0.76607,-0.76301 -1.2422,-1.24219 -0.47917,-0.0945 -1.04991,-0.28689 -1.6237,-0.47612 -1.04991,0 -2.10287,-0.0977 -3.2474,-0.1924 z m -136.13665,21.01961 c 0,0.0945 0,0.0945 -1.43293,0.6684 -0.1907,0.18923 -0.38151,0.38151 -0.66902,0.57074 0,0.38456 0,0.76607 0,1.24524 2.77067,2.76823 2.77067,2.76823 4.20483,4.39193 0.66779,1.05174 1.33651,2.10317 2.00552,3.24891 0,0.0952 0,0.28599 0.0952,0.47796 0.0967,0.0942 0.28628,0.28628 0.47825,0.47705 0.47673,0 1.05023,0 1.6237,0 0.19069,-0.0955 0.47795,-0.28629 0.76424,-0.47705 0.19191,-0.38273 0.3815,-0.76546 0.66872,-1.24219 0,-0.38151 0,-0.76424 0,-1.14697 -0.1907,-0.76424 -0.38151,-1.52694 -0.66872,-2.29301 -0.47703,-0.86068 -0.95498,-1.72137 -1.43294,-2.579 -0.47827,-0.6684 -1.05052,-1.3368 -1.62402,-2.00521 -1.0502,-0.76607 -1.0502,-0.76607 -1.90998,-1.14758 -0.6687,0 -1.33742,-0.0945 -2.10288,-0.18922 z m -18.53307,4.39192 c -0.3815,0.38456 -1.14696,0.66841 -1.81568,1.14758 -0.1907,0.2869 -0.57225,0.38151 -1.52726,1.43447 -0.0964,0 -0.19191,0 -0.38273,0.0942 -1.6237,1.91121 -1.6237,1.91121 -2.10195,2.29272 -0.28599,0.57347 -0.76394,0.95498 -1.14667,1.6237 -0.0955,0 -0.18947,0.0955 -0.38151,0.19069 -2.10195,3.24892 -2.58022,4.20392 -2.96173,4.58665 -0.76392,1.71893 -1.62492,3.43814 -2.48316,5.25383 -0.28751,1.33771 -0.66902,2.67545 -1.05174,4.01194 0,0.66872 0,1.33773 0,2.10197 0.0955,0.0952 0.19191,0.19191 0.28628,0.38273 0.19191,0 0.38273,0 0.66872,0 0.28628,-0.1907 0.57347,-0.38273 0.95498,-0.5735 0,-0.0955 0,-0.19191 0.0967,-0.28628 0.19069,-0.0965 0.47795,-0.28719 0.76424,-0.47796 2.29242,-2.29271 2.29242,-2.29271 3.43817,-3.63042 0.38273,-0.66872 0.86097,-1.05145 1.24248,-1.72015 0.57318,-0.57227 0.95469,-1.24129 1.81569,-2.19749 2.10073,-2.96143 2.19717,-3.2474 2.96141,-4.2024 0.5735,-1.05175 0.5735,-1.05175 1.24219,-1.91121 0.66902,-1.24097 1.33774,-2.48346 2.00643,-3.82087 0.18948,-0.5735 0.38151,-1.24251 0.66902,-1.9106 0,-0.57379 0,-1.14758 0,-1.72137 0,-0.0945 -0.0967,-0.28384 -0.19192,-0.47612 -0.66901,0 -1.33771,-0.0945 -2.10195,-0.1924 z m -51.77896,0.38456 c 0,0.0945 0,0.0945 -0.95501,0.18923 -0.9562,0.47918 -1.9112,0.9553 -2.96141,1.43447 -0.66901,0.57379 -1.05174,0.66809 -3.91763,2.76884 -0.47705,0.57347 -1.52848,1.43416 -2.00643,2.00643 -0.28629,0.0967 -0.6678,0.66902 -1.62402,1.52848 -1.81444,2.19717 -1.81444,2.19717 -2.00521,2.67544 -0.0952,0 -0.19192,0.0952 -0.38151,0.1907 -1.91121,3.15339 -1.91121,3.15339 -2.29394,3.5349 -0.57347,1.24219 -0.57347,1.24219 -1.43293,2.67513 -0.28599,0.955 -0.47673,1.14575 -1.05145,2.77067 0,0.66901 0,1.43325 0,2.19627 0.0965,0.0964 0.19191,0.19191 0.28721,0.38273 0.28751,0 0.57347,0 0.95498,-0.0955 1.81569,-1.33771 2.19842,-1.81445 2.86743,-2.19717 0.6687,-0.5735 1.33742,-1.2422 2.00521,-1.91121 0.1907,-0.0952 0.38151,-0.19069 0.6687,-0.38151 1.43325,-1.43296 1.52848,-1.72015 2.10197,-2.10165 1.43294,-1.43326 1.52848,-1.71925 2.10195,-2.10198 0.47673,-0.47824 0.955,-0.95498 1.43174,-1.43325 0,-0.0952 0,-0.19069 0.0967,-0.38151 0.57225,-0.47795 0.95468,-1.05142 1.24097,-1.14665 2.5799,-3.15217 2.96141,-3.82119 3.53491,-4.39468 1.6237,-2.48439 1.6237,-2.48439 2.38916,-4.01072 0.0955,-1.33985 0.0955,-1.33985 0,-1.72136 -0.1907,-0.19241 -0.1907,-0.19241 -1.05145,-0.47613 z m 162.12043,1.33681 c -0.86069,0.6684 -1.81599,1.43203 -2.77128,2.19749 0,0.094 0,0.18947 -0.0945,0.28597 -1.04991,0.76424 -1.52908,1.33773 -2.00521,1.52847 -0.95835,1.05023 -2.96355,2.77067 -3.34506,3.24741 -1.14453,0.955 -2.00521,1.9112 -2.579,2.29271 -0.38151,0.5735 -3.63196,3.82241 -4.2027,4.20392 -0.38456,0.5735 -0.86068,0.955 -3.63196,4.1084 -0.57379,0.47674 -0.9553,1.14543 -2.00521,2.10044 -0.19216,0.47824 -0.19216,0.47824 -0.66841,0.9562 -0.0977,0 -0.19215,0 -0.28689,0.0955 0,0.0952 0,0.28599 -0.0977,0.47795 -0.47612,0.47705 -0.47612,0.47705 -0.76301,0.5735 -0.86069,1.33771 -1.2422,1.6237 -1.33681,2.00643 -1.05296,1.14574 -1.33681,1.71922 -1.9106,2.29271 0,0.19069 -0.0945,0.38151 -0.19215,0.57225 -0.57379,0.85946 -1.14453,1.72047 -1.81293,2.67545 -0.2869,0.85946 -0.66841,1.43173 -0.86069,2.10165 0,0.47827 0,0.95501 0,1.52848 0.0947,0.0955 0.19216,0.19069 0.2869,0.38151 1.81293,-0.0942 1.81293,-0.0942 2.38672,-0.28597 2.19749,-1.43325 2.19749,-1.43325 6.21096,-4.48991 3.62891,-3.63043 4.2027,-4.01316 4.5842,-4.58665 0.57379,-0.57225 1.2422,-1.14575 1.9106,-1.81444 3.82424,-4.58514 4.10809,-4.7771 4.48959,-5.44612 0.57379,-0.57227 0.57379,-0.57227 2.67667,-3.43817 1.3368,-2.19749 2.77128,-4.48988 4.2027,-6.7826 0.6684,-1.33773 1.3368,-2.77067 2.00521,-4.20362 0.0977,-0.47825 0.28689,-0.95621 0.47917,-1.43326 0,-0.28506 0,-0.57195 0,-0.95346 -0.19216,0 -0.38151,-0.0977 -0.6684,-0.1924 z m -244.47046,1.90999 c 0,0.0955 -4.39315,0.85975 -6.97305,1.52847 -1.24251,0.47796 -2.4847,0.95498 -3.72568,1.43294 -0.85975,0.3815 -1.81476,0.85978 -2.77066,1.33773 -1.624,1.05021 -3.2477,2.10195 -4.8714,3.15218 -1.33773,1.14574 -2.67544,2.38794 -4.01318,3.63042 -0.57347,0.66872 -1.14697,1.33774 -1.72014,2.00643 -0.76424,1.24219 -0.76424,1.24219 -1.33771,1.81447 -0.18948,0.57347 -0.6678,1.24248 -2.10076,4.58665 -0.28628,1.43293 -0.28628,1.43293 -0.28628,2.67513 0.19069,0.3815 0.19069,0.3815 0.57228,0.66901 0.76423,0 0.76423,0 1.72044,-0.19191 0.19069,-0.1907 1.33651,-0.47703 4.01195,-1.52848 0.19192,-0.19069 10.50796,-4.39466 10.69995,-4.58543 1.33649,-0.57318 1.9112,-0.6687 6.7826,-2.77067 0.57349,-0.38151 7.92927,-3.53491 8.9798,-4.10838 0.28599,-0.0952 0.66872,-0.19069 1.05145,-0.28599 1.33771,-0.76546 2.96141,-1.43293 3.15217,-1.6237 1.71922,-0.66901 3.1534,-1.43447 4.01194,-1.72044 0.28721,-0.19069 0.66872,-0.47705 1.05145,-0.76424 0.0955,-1.33651 0.0955,-1.33651 0,-1.71924 -0.76424,-0.47795 -1.52848,-0.95498 -2.29272,-1.43293 -1.6237,-0.66902 -1.6237,-0.66902 -3.8209,-1.33774 -1.05174,-0.19069 -2.10194,-0.38273 -3.15339,-0.57347 -1.624,0 -3.2477,-0.0952 -4.96816,-0.19069 z m 405.34808,12.80098 c 0,0.0965 0,0.0965 -2.96356,1.14665 -2.38672,1.81477 -2.48133,2.00675 -3.14974,2.48349 -1.52908,1.81566 -1.52908,1.81566 -2.29515,3.05817 -0.18923,0.47673 -0.38151,0.95469 -0.6684,1.43293 -0.18923,0.76302 -0.38151,1.52848 -0.57379,2.38794 0,0.66902 0,1.43296 0,2.1972 0.0977,0.38151 0.1924,0.76424 0.38456,1.24248 0.28689,0.47674 0.57379,0.95501 0.95529,1.52819 0.38151,0 0.76302,0 1.14453,-0.0965 0.6684,-0.57227 1.33681,-1.14574 2.10288,-1.71924 1.81598,-1.91089 2.38977,-2.2924 2.77128,-2.86589 0.28689,-0.28629 0.57073,-0.57348 0.95224,-0.85976 0.67146,-0.85946 1.33986,-1.81447 2.10288,-2.77067 0.28689,-0.6675 0.6684,-1.33651 1.05296,-2.10075 0.0945,-0.38273 0.18923,-0.76546 0.28384,-1.24219 0,-0.6687 0,-1.43294 0,-2.19839 -0.0945,-0.28629 -0.18923,-0.57228 -0.38151,-0.95501 -0.47612,-0.28628 -0.47612,-0.28628 -1.71831,-0.6687 z m -233.00505,0.5744 c 0,0.0942 -1.14697,0.47703 -3.24863,1.624 -0.57347,0.47673 -1.14696,0.955 -1.71922,1.43174 -0.66901,0.86068 -1.43417,1.72043 -2.19719,2.67544 -0.38273,0.85946 -0.76424,1.24219 -1.05175,2.10165 -0.19069,0.1907 -0.19069,0.1907 -0.76423,2.29394 0,0.95498 0,2.00521 0,3.05573 0.19191,0.47796 0.47827,1.05143 0.76423,1.6237 0.0967,0.0965 0.1907,0.19192 0.38273,0.38273 0.66902,0 1.33774,0 2.00643,-0.0955 0.76302,-0.47795 1.62402,-0.9559 2.48349,-1.52818 3.43846,-2.5799 4.10715,-2.96141 5.1589,-3.82119 0.47795,-0.47795 0.95468,-0.95498 1.43295,-1.43416 0.57348,-0.85856 1.14575,-1.71924 1.81445,-2.5787 0.0967,-0.28629 0.19191,-0.57347 0.38273,-0.95498 0.0955,-1.81476 0.0955,-1.81476 0,-2.67545 -0.85947,-1.14574 -0.85947,-1.14574 -1.33771,-1.52847 -0.38273,-0.0952 -0.76424,-0.1907 -1.14575,-0.38273 -0.95591,0 -1.91091,-0.0952 -2.96143,-0.18947 z m 147.78822,4.01072 c 0,0.0964 0,0.0964 -2.67361,0.76545 -2.96051,1.43296 -3.82119,2.00644 -4.20575,2.10166 -2.19444,1.71924 -2.19444,1.71924 -4.10503,3.53522 -0.38457,0.6687 -0.76607,0.95469 -0.9553,1.43172 -0.0977,0 -0.19216,0.0964 -0.38456,0.19191 -0.28385,0.85946 -0.28385,0.85946 -1.04991,2.29272 0,0.85946 0,1.71892 0,2.57992 0.28689,0.38151 0.57378,0.85824 0.95529,1.33742 0.2869,0.0943 0.57379,0.18972 0.9553,0.28628 1.14758,0 2.2921,0 3.5343,0 0.47917,-0.0964 0.95835,-0.19191 1.43447,-0.28628 1.04991,-0.47918 2.10287,-0.95591 3.15279,-1.43418 0.38151,-0.38151 1.24219,-0.76424 3.43968,-2.38794 0,-0.0952 0,-0.19069 0.0945,-0.28719 0.47612,-0.38151 0.9553,-0.76301 1.52909,-1.24129 0.47612,-0.66869 1.24219,-1.43293 2.67361,-3.34414 0.28689,-0.76301 0.6684,-1.6237 1.04991,-2.48348 0,-0.28596 0,-0.57318 0,-0.95468 -0.28384,-0.76546 -0.28384,-0.76546 -0.76302,-1.43448 -0.3815,-0.094 -0.86068,-0.28596 -1.3368,-0.47673 -1.04991,0 -2.19749,-0.0955 -3.34507,-0.19191 z m -213.80233,3.15339 c 0,0.0952 0,0.0952 -4.77588,0.76424 -0.76424,0.19192 -1.5297,0.47796 -2.29394,0.76424 -0.955,0.47795 -1.90998,0.955 -2.96021,1.52848 -0.6687,0.57349 -1.33771,1.14667 -2.00643,1.81568 -0.38273,0.6687 -0.76546,1.33771 -1.24249,2.10073 -0.19069,0.76517 -0.19069,0.76517 -0.19069,2.48439 0.0955,0.38273 0.19069,0.76423 0.38151,1.24251 0.57347,0.85946 0.66901,1.24097 1.05174,1.6237 0.6687,0.28596 1.33771,0.66869 2.00643,1.05142 0.57225,0.0955 1.14575,0.1907 1.81444,0.38151 0.85978,0 1.71925,0 2.57871,0 1.05174,-0.19069 2.19749,-0.38151 3.34446,-0.6687 1.05142,-0.47827 2.19717,-0.955 3.34414,-1.43325 0.76302,-0.57227 1.52818,-1.14545 2.38672,-1.72014 0.47917,-0.6678 0.47917,-0.6678 0.76545,-0.85856 0.1907,-0.47918 0.38273,-0.9562 0.57228,-1.52848 0.19191,-4.39559 0.19191,-4.39559 0.0965,-6.87905 -0.47796,-0.3815 -0.47796,-0.3815 -1.05145,-0.57349 -1.24127,0 -2.48346,0 -3.8212,-0.0952 z m -67.63784,1.62493 c 0,0.0942 0,0.0942 -1.24097,0.18947 -1.05174,0.2875 -2.10195,0.66901 -3.1534,1.05174 -1.43203,1.05145 -1.43203,1.05145 -1.90998,1.24219 -1.05175,1.05023 -1.05175,1.05023 -1.91121,2.1972 -0.0955,0.28628 -0.28628,0.66779 -0.47703,1.05052 0,0.85947 0,1.72015 0.0942,2.57868 0.76546,1.1479 0.76546,1.1479 1.5297,2.00643 1.0502,0.66872 1.0502,0.66872 1.91121,1.05145 0.47673,0.0955 0.95468,0.1907 1.43171,0.28629 1.24219,0 2.57992,0 3.91641,0 1.72047,-0.28629 1.72047,-0.28629 3.53613,-0.85978 0.19069,-0.1907 0.85946,-0.28597 2.29272,-1.05021 0.28599,-0.0964 0.57349,-0.19191 0.85946,-0.28628 4.39437,-2.48561 4.77588,-2.86711 6.11361,-3.63135 0.95498,-0.76424 0.95498,-0.76424 1.43325,-1.43296 0,-1.14575 0,-1.14575 -0.19069,-1.624 -0.95623,-0.38243 -1.91121,-0.76394 -2.96173,-1.24219 -2.48438,-0.66872 -2.48438,-0.66872 -6.49634,-1.43296 -1.52848,0 -3.15218,0 -4.7771,-0.0942 z m 229.18569,6.11361 c 0,0.0955 -1.91364,0.38151 -10.98745,2.48345 -2.19748,0.66902 -4.48959,1.33774 -6.78169,2.10198 -3.34507,1.43293 -3.34507,1.43293 -4.58726,2.10194 -0.57379,0.38151 -1.14453,0.76424 -1.71832,1.14575 -0.28689,0.28721 -0.57379,0.66872 -0.86068,1.05145 -0.0945,0.19069 -0.19216,0.47673 -0.2869,0.76424 0,0.85946 0,1.81444 0.0945,2.77067 0.3815,1.43293 0.3815,1.43293 1.05296,2.96141 0.18923,0.38273 0.47612,0.76424 0.76302,1.24097 0.86068,0.861 0.86068,0.861 1.3368,1.5297 0.47918,0.0955 0.47918,0.0955 2.19749,1.05052 1.2422,0 2.48439,0 3.72658,0.0952 0.38151,-0.0952 0.76302,-0.19069 1.24219,-0.28596 0.57379,-0.28629 1.24219,-0.5735 1.9106,-0.85978 3.34201,-2.48468 3.53429,-2.77067 4.10808,-3.05696 0.9553,-1.05142 2.00521,-2.10287 3.05818,-3.24862 1.52603,-2.19717 3.05512,-4.39437 4.67882,-6.59186 0.28689,-0.76424 0.6684,-1.24219 2.00521,-4.01286 0,-0.28628 0,-0.57225 0,-0.95498 -0.28384,-0.0955 -0.57074,-0.19069 -0.95225,-0.28628"
       id="path2999"
       style="fill:#231f20;fill-opacity:1;fill-rule:evenodd;stroke:none" />
  </g>
</svg>
